<svg width="46" height="50" viewBox="0 0 46 50" fill="none" xmlns="http://www.w3.org/2000/svg">
<path d="M30.5651 24.9464C30.342 26.7744 29.5132 28.475 28.2109 29.777C26.5962 31.3927 24.3393 32.1532 21.5051 32.0387C19.5173 31.9595 18.5993 32.4796 18.4485 32.5741C17.8396 33.1075 17.0667 33.3995 16.2507 33.3995C15.3585 33.3995 14.5197 33.0522 13.8889 32.4214C12.8 31.3325 12.6244 29.653 13.3678 28.3733L13.9013 27.5278C14.0826 27.0859 14.3278 26.2137 14.2706 24.8042C14.157 21.969 14.9176 19.7131 16.5323 18.0984C17.8549 16.7767 19.5459 15.9579 21.3743 15.7394C21.6334 14.4959 22.1919 13.3343 23.0014 12.3555H3.82204C1.71496 12.3555 9.54679e-05 14.0694 9.54679e-05 16.1765V35.1278H39.8705V16.3101L35.0255 22.2477C33.8918 23.6317 32.3172 24.5844 30.5651 24.9464ZM9.54679e-05 39.2121C9.54679e-05 41.3183 1.71496 43.0322 3.82204 43.0322H14.6837V46.3092H12.2762C11.4857 46.3092 10.8448 46.9501 10.8448 47.7407C10.8448 48.5312 11.4857 49.1721 12.2762 49.1721H27.5939C28.3844 49.1721 29.0253 48.5312 29.0253 47.7407C29.0253 46.9501 28.3844 46.3092 27.5939 46.3092H25.1864V43.0322H36.0484C38.1555 43.0322 39.8704 41.3183 39.8704 39.2121V37.9906H0V39.2121H9.54679e-05Z" fill="url(#paint0_linear_220_284)"/>
<path d="M15.9481 29.6889C15.9478 29.6891 15.9475 29.6894 15.9473 29.6897C15.9471 29.6898 15.947 29.6899 15.9469 29.6901L15.9466 29.6904L15.9461 29.6909C15.946 29.6912 15.9459 29.6912 15.9456 29.6914L15.9455 29.6915L15.945 29.692L15.9449 29.6921C15.9448 29.6922 15.9447 29.6924 15.9445 29.6925L15.9445 29.6926L15.944 29.6931L15.9439 29.6932L15.9434 29.6937C15.8561 29.7839 15.8078 29.9049 15.8091 30.0305C15.8104 30.156 15.8611 30.276 15.9503 30.3644C16.0395 30.4528 16.1599 30.5025 16.2854 30.5027C16.411 30.5029 16.5316 30.4536 16.621 30.3655C16.6502 30.3378 18.0957 29.0015 21.6566 29.1447C23.6599 29.2254 25.1959 28.7455 26.2225 27.7191C28.326 25.6155 28.326 22.1929 26.2225 20.0893C25.2035 19.0703 23.8487 18.5091 22.4076 18.5091C20.9665 18.5091 19.6117 19.0702 18.5927 20.0893C17.5663 21.1157 17.0866 22.652 17.1671 24.6552C17.311 28.2354 15.9596 29.677 15.9487 29.6882L15.9481 29.6889ZM30.4413 22.0033C31.3831 21.7213 32.2192 21.1644 32.8423 20.4039L34.6713 18.1625L28.1558 11.647L25.9237 13.47C25.1615 14.0917 24.6028 14.9272 24.3195 15.8691C25.7949 16.2155 27.148 16.9666 28.2464 18.065C29.3706 19.1891 30.1025 20.5585 30.4413 22.0033ZM45.1403 1.17206C44.6285 0.657677 43.9434 0.352515 43.2186 0.316165C42.4939 0.279815 41.7817 0.514886 41.221 0.975478L30.3842 9.82683L36.4905 15.9331L45.3378 5.09049C45.7981 4.52973 46.0328 3.81761 45.9963 3.0931C45.9598 2.36859 45.6546 1.68369 45.1403 1.17206Z" fill="url(#paint1_linear_220_284)"/>
<defs>
<linearGradient id="paint0_linear_220_284" x1="0" y1="37.2662" x2="77.8043" y2="37.2662" gradientUnits="userSpaceOnUse">
<stop stop-color="#AA076B"/>
<stop offset="1" stop-color="#61045F"/>
</linearGradient>
<linearGradient id="paint1_linear_220_284" x1="15.8091" y1="20.7397" x2="74.7245" y2="20.7397" gradientUnits="userSpaceOnUse">
<stop stop-color="#AA076B"/>
<stop offset="1" stop-color="#61045F"/>
</linearGradient>
</defs>
</svg>
