<svg width="40" height="41" viewBox="0 0 40 41" fill="none" xmlns="http://www.w3.org/2000/svg">
<g clip-path="url(#clip0_220_281)">
<path fill-rule="evenodd" clip-rule="evenodd" d="M32.9705 18.7693C35.2348 21.2784 36.9229 23.4554 38.0346 25.4073C42.1059 32.5558 36.3141 39.8163 28.5577 39.6856C20.8012 39.8163 15.0095 32.5558 19.0807 25.4073C20.1924 23.4554 21.8805 21.2784 24.1448 18.7693C24.4215 18.8569 24.7102 18.9014 25.0005 18.9012H32.1148C32.4128 18.9012 32.7003 18.8549 32.9705 18.7693ZM4.17703 0.9375C2.22336 0.9375 0.625 2.53594 0.625 4.48953V30.4566C0.625 32.4102 2.22336 34.0086 4.17703 34.0086H17.2573C15.9789 30.9538 16.3657 27.6487 17.9946 24.7887C18.3273 24.2045 18.6923 23.6255 19.0815 23.0534C18.8564 22.9078 18.7069 22.6545 18.7069 22.3674V21.3059C18.7069 20.8561 19.0737 20.4893 19.5234 20.4893H21.0045C21.6664 19.6756 22.3552 18.8836 23.0445 18.1191C22.8402 17.9253 22.6656 17.7025 22.5263 17.4578H19.5234C19.0737 17.4578 18.7069 17.091 18.7069 16.6412V15.5796C18.7069 15.1298 19.0737 14.763 19.5234 14.763H22.468C22.7223 14.2688 23.1146 13.859 23.5974 13.5834L22.7488 12.7349C22.2323 12.2184 21.9531 11.5524 21.9108 10.8741H5.36102C4.91125 10.8741 4.54445 10.5073 4.54445 10.0576V6.8525C4.54445 6.40273 4.91125 6.03594 5.36102 6.03594H23.3256C23.7754 6.03594 24.1422 6.40273 24.1422 6.8525V7.88008C24.7184 7.74789 25.3313 7.79188 25.8915 8.02164C26.2702 7.11508 27.0918 6.45633 28.0617 6.28656V4.48953C28.0617 2.53594 26.4633 0.9375 24.5097 0.9375H4.17703ZM25.0005 17.6512C24.1234 17.6512 23.4059 16.9337 23.4059 16.0566C23.4059 15.1795 24.1234 14.462 25.0005 14.462H32.1148C32.992 14.462 33.7095 15.1795 33.7095 16.0566C33.7095 16.9336 32.992 17.6512 32.1148 17.6512H25.0005ZM6.11125 14.763H9.1632C9.61297 14.763 9.97976 15.1298 9.97976 15.5796V16.6412C9.97976 17.0909 9.61297 17.4577 9.1632 17.4577H6.11125C5.66148 17.4577 5.29469 17.0909 5.29469 16.6412V15.5796C5.29469 15.1298 5.66148 14.763 6.11125 14.763ZM12.8173 26.2155C12.3676 26.2155 12.0008 26.5823 12.0008 27.032V28.0936C12.0008 28.5434 12.3676 28.9102 12.8173 28.9102H15.8693C16.3191 28.9102 16.6859 28.5434 16.6859 28.0936V27.032C16.6859 26.5823 16.3191 26.2155 15.8693 26.2155H12.8173ZM6.11125 26.2155H9.1632C9.61297 26.2155 9.97976 26.5823 9.97976 27.032V28.0936C9.97976 28.5434 9.61297 28.9102 9.1632 28.9102H6.11125C5.66148 28.9102 5.29469 28.5434 5.29469 28.0936V27.032C5.29469 26.5823 5.66148 26.2155 6.11125 26.2155ZM12.8173 20.4892C12.3676 20.4892 12.0008 20.856 12.0008 21.3058V22.3673C12.0008 22.8171 12.3676 23.1839 12.8173 23.1839H15.8693C16.3191 23.1839 16.6859 22.8171 16.6859 22.3673V21.3058C16.6859 20.856 16.3191 20.4892 15.8693 20.4892H12.8173ZM6.11125 20.4892H9.1632C9.61297 20.4892 9.97976 20.856 9.97976 21.3058V22.3673C9.97976 22.8171 9.61297 23.1839 9.1632 23.1839H6.11125C5.66148 23.1839 5.29469 22.8171 5.29469 22.3673V21.3058C5.29469 20.8561 5.66148 20.4892 6.11125 20.4892ZM12.8173 14.763H15.8693C16.3191 14.763 16.6859 15.1298 16.6859 15.5796V16.6412C16.6859 17.0909 16.3191 17.4577 15.8693 17.4577H12.8173C12.3676 17.4577 12.0008 17.0909 12.0008 16.6412V15.5796C12.0008 15.1298 12.3676 14.763 12.8173 14.763ZM28.4759 32.1864C27.9966 32.1739 27.5314 32.0441 27.1605 31.7971C26.8249 31.5736 26.5685 31.2466 26.4614 30.8171C26.4387 30.7249 26.3981 30.6381 26.3419 30.5616C26.2856 30.4851 26.2149 30.4204 26.1337 30.3713C26.0524 30.3221 25.9623 30.2894 25.8685 30.2751C25.7746 30.2608 25.6788 30.2651 25.5866 30.2877C25.4944 30.3104 25.4076 30.351 25.3311 30.4073C25.2546 30.4635 25.1899 30.5343 25.1408 30.6155C25.0916 30.6967 25.059 30.7868 25.0446 30.8807C25.0303 30.9745 25.0346 31.0703 25.0573 31.1625C25.2595 31.9738 25.7379 32.5873 26.3623 33.0031C26.7887 33.2872 27.2841 33.4749 27.8027 33.5664V34.129C27.8047 34.3199 27.8819 34.5023 28.0176 34.6366C28.1533 34.7709 28.3365 34.8462 28.5275 34.8462C28.7184 34.8462 28.9016 34.7709 29.0373 34.6366C29.173 34.5023 29.2502 34.3199 29.2522 34.129V33.5802C29.8825 33.4841 30.5247 33.2541 31.0289 32.8716C31.6348 32.4118 32.0379 31.7534 32.0169 30.8699C32.0153 30.781 32.0095 30.6921 31.9995 30.6038C31.882 29.6356 31.3582 29.0055 30.6637 28.5862C30.0537 28.2178 29.3221 28.0344 28.6514 27.9243C28.1677 27.8448 27.6581 27.7105 27.285 27.4669C26.9959 27.2781 26.7885 27.0048 26.7691 26.6053C26.748 26.173 26.9368 25.8241 27.2342 25.5823C27.4672 25.393 27.7644 25.2613 28.0866 25.1965C28.2176 25.1702 28.3507 25.1552 28.4843 25.1518C28.5159 25.1537 28.5477 25.1535 28.5793 25.1513C28.7574 25.1538 28.9369 25.1767 29.1121 25.2211C29.6509 25.3577 30.1413 25.7127 30.3997 26.328C30.5545 26.697 30.9791 26.8705 31.348 26.7158C31.717 26.561 31.8906 26.1363 31.7359 25.7674C31.281 24.6841 30.4151 24.0582 29.4631 23.817C29.3933 23.7992 29.323 23.7837 29.2522 23.7703V23.2087C29.2488 23.0188 29.1709 22.8378 29.0354 22.7047C28.8998 22.5715 28.7174 22.4969 28.5275 22.4969C28.3375 22.4969 28.1551 22.5715 28.0195 22.7047C27.884 22.8378 27.8062 23.0188 27.8027 23.2087V23.7812C27.2536 23.8919 26.738 24.1237 26.3227 24.4613C25.6844 24.9803 25.2796 25.7338 25.3252 26.6734C25.371 27.6173 25.8421 28.2505 26.498 28.6787C27.0697 29.0519 27.7718 29.245 28.4193 29.3512C28.9393 29.4366 29.4945 29.5716 29.9163 29.8263C30.2537 30.0299 30.5072 30.3277 30.5613 30.7738C30.5685 30.8332 30.5724 30.8764 30.573 30.904C30.5815 31.2587 30.4118 31.5289 30.157 31.7223C29.838 31.9643 29.39 32.107 28.942 32.1614C28.8201 32.1762 28.7135 32.1846 28.6232 32.1867L28.5887 32.1873C28.5683 32.1856 28.5479 32.1848 28.5274 32.1848C28.5102 32.1846 28.493 32.1852 28.4759 32.1864ZM24.9937 13.212L23.6327 11.851C22.9954 11.2137 22.9954 10.1708 23.6327 9.53352C24.1748 8.99141 25.0329 8.89984 25.6779 9.31383C25.9175 9.46758 26.1927 9.49211 26.4555 9.38328C26.7184 9.27437 26.8956 9.06258 26.9563 8.78438C27.117 8.04875 27.7755 7.49352 28.5577 7.49336C29.3255 7.49336 29.9954 8.03469 30.1591 8.78438C30.2198 9.06258 30.397 9.27437 30.6598 9.38328C30.9229 9.49227 31.198 9.46758 31.4374 9.31383C32.0711 8.90711 32.9296 8.98047 33.4826 9.53336V9.53352C34.1199 10.1709 34.1199 11.2137 33.4826 11.851L32.1216 13.212L32.1148 13.212H25.0005L24.9937 13.212Z" fill="url(#paint0_linear_220_281)"/>
</g>
<defs>
<linearGradient id="paint0_linear_220_281" x1="0.625" y1="27.1563" x2="76.2425" y2="27.1563" gradientUnits="userSpaceOnUse">
<stop stop-color="#AA076B"/>
<stop offset="1" stop-color="#61045F"/>
</linearGradient>
<clipPath id="clip0_220_281">
<rect width="40" height="40" fill="white" transform="translate(0 0.3125)"/>
</clipPath>
</defs>
</svg>
