<svg width="40" height="41" viewBox="0 0 40 41" fill="none" xmlns="http://www.w3.org/2000/svg">
<g clip-path="url(#clip0_220_287)">
<path d="M20 13.5938C23.6675 13.5938 26.6406 10.6206 26.6406 6.95312C26.6406 3.28561 23.6675 0.3125 20 0.3125C16.3325 0.3125 13.3594 3.28561 13.3594 6.95312C13.3594 10.6206 16.3325 13.5938 20 13.5938Z" fill="url(#paint0_linear_220_287)"/>
<path d="M24.8796 14.4941C23.4736 15.4072 21.7977 15.9383 20 15.9383C18.2023 15.9383 16.5264 15.4072 15.1204 14.4941C13.5572 15.0916 12.1172 15.9712 10.872 17.0891L20 20.5122L29.128 17.0891C27.8828 15.9712 26.4428 15.0915 24.8796 14.4941ZM34.0625 24.532H33.2812C32.6341 24.532 32.1094 25.0567 32.1094 25.7039V28.8289C32.1094 29.4761 32.6341 30.0008 33.2812 30.0008H34.0625C35.5727 30.0008 36.7969 28.7766 36.7969 27.2664C36.7969 25.7563 35.5727 24.532 34.0625 24.532ZM6.8325 18.6161C6.67687 18.7239 6.54968 18.8679 6.46185 19.0357C6.37401 19.2034 6.32812 19.3899 6.32813 19.5793V22.1883H6.71875C8.65727 22.1883 10.2344 23.7654 10.2344 25.7039V28.8289C10.2344 30.7674 8.65727 32.3445 6.71875 32.3445H6.32813V34.8137C6.32812 35.0522 6.40092 35.2851 6.5368 35.4812C6.67268 35.6772 6.86515 35.8272 7.08852 35.9109L18.8281 40.3133V22.5758L7.91148 18.482C7.7342 18.4155 7.54341 18.3929 7.35549 18.4163C7.16757 18.4396 6.98811 18.5082 6.8325 18.6161Z" fill="url(#paint1_linear_220_287)"/>
<path d="M29.7656 28.8277V25.7027C29.7656 23.7642 31.3427 22.1871 33.2812 22.1871H33.6719V19.5781C33.6719 19.3888 33.626 19.2022 33.5382 19.0345C33.4503 18.8667 33.3231 18.7228 33.1675 18.6149C33.0119 18.5071 32.8324 18.4385 32.6445 18.4152C32.4566 18.3918 32.2658 18.4144 32.0885 18.4809L21.1719 22.5746V40.3121L32.9115 35.9098C33.1348 35.826 33.3273 35.6761 33.4632 35.48C33.5991 35.2839 33.6719 35.0511 33.6719 34.8125V32.3434H33.2812C31.3427 32.3434 29.7656 30.7663 29.7656 28.8277ZM7.89062 28.8277V25.7027C7.89062 25.0556 7.36594 24.5309 6.71875 24.5309H5.9375C4.42734 24.5309 3.20312 25.7551 3.20312 27.2652C3.20312 28.7754 4.42734 29.9996 5.9375 29.9996H6.71875C7.36594 29.9996 7.89062 29.4749 7.89062 28.8277Z" fill="url(#paint2_linear_220_287)"/>
</g>
<defs>
<linearGradient id="paint0_linear_220_287" x1="13.3594" y1="9.29882" x2="39.2768" y2="9.29882" gradientUnits="userSpaceOnUse">
<stop stop-color="#AA076B"/>
<stop offset="1" stop-color="#61045F"/>
</linearGradient>
<linearGradient id="paint1_linear_220_287" x1="6.32812" y1="31.9638" x2="65.7857" y2="31.9638" gradientUnits="userSpaceOnUse">
<stop stop-color="#AA076B"/>
<stop offset="1" stop-color="#61045F"/>
</linearGradient>
<linearGradient id="paint2_linear_220_287" x1="3.20312" y1="33.2281" x2="62.6607" y2="33.2281" gradientUnits="userSpaceOnUse">
<stop stop-color="#AA076B"/>
<stop offset="1" stop-color="#61045F"/>
</linearGradient>
<clipPath id="clip0_220_287">
<rect width="40" height="40" fill="white" transform="translate(0 0.3125)"/>
</clipPath>
</defs>
</svg>
