<svg width="40" height="41" viewBox="0 0 40 41" fill="none" xmlns="http://www.w3.org/2000/svg">
<g clip-path="url(#clip0_220_272)">
<path d="M36.4899 16.9202L20.8893 1.31727C19.9692 0.399453 18.4808 0.410312 17.5728 1.31609C16.6596 2.23164 16.6596 3.7182 17.5728 4.63258L33.1757 20.2344C34.0897 21.1484 35.5757 21.1484 36.4899 20.2344C37.4065 19.3178 37.4065 17.8366 36.4899 16.9202ZM16.4154 6.78945L16.2979 7.37805C15.4708 11.5154 13.4607 15.4459 10.7418 18.6316L19.2299 27.1197C22.4152 24.4014 26.2916 22.3373 30.4291 21.5091L31.0188 21.3917L16.4154 6.78945ZM9.18567 20.3898L3.38466 26.1896C2.01396 27.5603 2.00825 29.7856 3.38466 31.162L6.69888 34.4763C8.06958 35.847 10.2949 35.8526 11.6713 34.4763L17.4718 28.6758L9.18567 20.3898ZM10.0143 29.505C9.55653 29.9627 8.81489 29.9627 8.35716 29.505C7.89943 29.0473 7.89943 28.3056 8.35716 27.8479L10.0143 26.1908C10.472 25.733 11.2136 25.733 11.6714 26.1908C12.1291 26.6485 12.1291 27.3902 11.6714 27.8479L10.0143 29.505ZM22.3647 35.0998L23.9588 33.5057C25.3353 32.1295 25.3307 29.9041 23.9589 28.5345L22.7748 27.3496C22.1204 27.7892 21.4954 28.2669 20.8877 28.7766L22.3018 30.1927C22.7584 30.647 22.7616 31.3864 22.3018 31.8487L20.6813 33.4691L18.2999 31.1619L14.9855 34.4763L20.3025 39.6284C21.2098 40.5381 22.6996 40.5432 23.6155 39.6272C24.5299 38.7128 24.5299 37.2263 23.6155 36.3118L22.3647 35.0998ZM27.0989 0.3125C26.4511 0.3125 25.927 0.836641 25.927 1.48438V3.82813C25.927 4.47586 26.4511 5 27.0989 5C27.7466 5 28.2708 4.47586 28.2708 3.82813V1.48438C28.2708 0.836641 27.7466 0.3125 27.0989 0.3125ZM36.4739 9.6875H34.1301C33.4824 9.6875 32.9583 10.2116 32.9583 10.8594C32.9583 11.5071 33.4824 12.0313 34.1301 12.0313H36.4739C37.1216 12.0313 37.6458 11.5071 37.6458 10.8594C37.6458 10.2116 37.1216 9.6875 36.4739 9.6875ZM34.9586 2.99953C34.5009 2.5418 33.7593 2.5418 33.3015 2.99953L30.9578 5.34328C30.5 5.80102 30.5 6.54266 30.9578 7.00039C31.4155 7.45813 32.1572 7.4582 32.6149 7.00039L34.9586 4.65664C35.4164 4.19891 35.4164 3.45727 34.9586 2.99953Z" fill="url(#paint0_linear_220_272)"/>
</g>
<defs>
<linearGradient id="paint0_linear_220_272" x1="2.35449" y1="27.3771" x2="71.2229" y2="27.3771" gradientUnits="userSpaceOnUse">
<stop stop-color="#AA076B"/>
<stop offset="1" stop-color="#61045F"/>
</linearGradient>
<clipPath id="clip0_220_272">
<rect width="40" height="40" fill="white" transform="translate(0 0.3125)"/>
</clipPath>
</defs>
</svg>
