<svg width="40" height="41" viewBox="0 0 40 41" fill="none" xmlns="http://www.w3.org/2000/svg">
<path d="M11.2988 17.7472C11.4034 16.6205 11.7328 15.5262 12.2676 14.529C12.1588 14.4142 12.0104 14.3451 11.8525 14.3358C11.6946 14.3265 11.5391 14.3777 11.4176 14.479C10.5589 15.1743 9.48727 15.5531 8.38243 15.5519C7.27758 15.5508 6.20673 15.1698 5.34947 14.4728C5.23608 14.3783 5.09283 14.327 4.9452 14.3281C4.79757 14.3293 4.65513 14.3828 4.54322 14.479C3.47729 15.3924 2.77632 16.6595 2.56885 18.0478C2.93144 17.8509 3.3375 17.7478 3.7501 17.7478L11.2988 17.7472Z" fill="url(#paint0_linear_220_296)"/>
<path d="M8.38 14.3102C13.0675 14.1614 13.0731 7.35516 8.38 7.20516C3.68625 7.35578 3.69375 14.1614 8.38 14.3102ZM37.4188 19.8283C37.3321 19.5858 37.1727 19.3759 36.9625 19.2271C36.7523 19.0784 36.5013 18.9981 36.2438 18.997H28.7212C28.8026 20.3384 28.5789 21.6809 28.0669 22.9234C27.5548 24.1659 26.7678 25.2762 25.765 26.1708C19.8675 31.3002 10.8256 26.7545 11.2744 18.997H3.75C3.41878 18.998 3.10142 19.13 2.86721 19.3642C2.633 19.5984 2.50099 19.9158 2.5 20.247V21.647C2.49992 21.8177 2.53349 21.9868 2.5988 22.1445C2.66411 22.3022 2.75988 22.4455 2.88062 22.5662C3.00136 22.6869 3.1447 22.7826 3.30246 22.8478C3.46022 22.9131 3.62929 22.9466 3.8 22.9464H6.23063C6.64043 24.3549 7.20645 25.7131 7.91812 26.9958L6.18063 28.727C5.94291 28.974 5.81068 29.3038 5.81196 29.6465C5.81324 29.9893 5.94794 30.3181 6.1875 30.5633L9.05625 33.4314C9.30208 33.6731 9.63304 33.8086 9.97781 33.8086C10.3226 33.8086 10.6535 33.6731 10.8994 33.4314L12.6181 31.7064C13.905 32.4119 15.2646 32.9756 16.6731 33.3877V35.8189C16.673 35.9896 16.7066 36.1587 16.7719 36.3164C16.8372 36.4741 16.933 36.6174 17.0537 36.7381C17.1745 36.8588 17.3178 36.9545 17.4756 37.0197C17.6333 37.085 17.8024 37.1184 17.9731 37.1183H22.0225C22.2105 37.1121 22.3951 37.0669 22.5646 36.9855C22.7341 36.9041 22.8848 36.7882 23.0071 36.6453C23.1294 36.5025 23.2206 36.3357 23.2749 36.1556C23.3292 35.9756 23.3454 35.7862 23.3225 35.5995L23.3663 33.3439C24.7689 32.9781 26.116 32.4252 27.3713 31.7002L29.1025 33.4377C29.3487 33.6773 29.679 33.8109 30.0225 33.8097C30.3661 33.8086 30.6955 33.6727 30.94 33.4314L33.8075 30.5627C34.0479 30.3161 34.1824 29.9854 34.1824 29.6411C34.1824 29.2968 34.0479 28.9661 33.8075 28.7195L32.0831 27.007C32.7891 25.7182 33.3529 24.3565 33.7644 22.9458H36.195C36.3658 22.9459 36.5349 22.9124 36.6927 22.8472C36.8505 22.7819 36.9939 22.6861 37.1146 22.5654C37.2354 22.4446 37.3311 22.3013 37.3964 22.1435C37.4617 21.9857 37.4952 21.8165 37.495 21.6458C37.5284 21.0385 37.5033 20.4295 37.42 19.827L37.4188 19.8283ZM18.7662 12.1983C19.4284 12.384 20.1245 12.4145 20.8003 12.2874C21.4762 12.1603 22.1137 11.8791 22.6632 11.4656C23.2126 11.052 23.6594 10.5174 23.9686 9.90313C24.2779 9.28889 24.4413 8.61159 24.4462 7.92391C24.2412 2.03203 15.7487 2.03953 15.5412 7.92391C15.5431 8.88961 15.8585 9.82858 16.4402 10.5995C17.0218 11.3704 17.8381 11.9315 18.7662 12.1983Z" fill="url(#paint1_linear_220_296)"/>
<path d="M12.5609 20.2466C13.7259 30.1091 27.8722 28.8616 27.4709 18.9966H12.5234C12.5278 19.3041 12.5322 19.8853 12.5609 20.2466ZM24.1966 12.4103C24.0873 12.3378 23.958 12.3012 23.8269 12.3056C23.6958 12.3101 23.5694 12.3555 23.4653 12.4353C22.4705 13.2018 21.2499 13.6175 19.9941 13.6175C18.7382 13.6175 17.5176 13.2018 16.5228 12.4353C16.4194 12.354 16.2927 12.3078 16.1613 12.3033C16.0298 12.2988 15.9003 12.3363 15.7916 12.4103C14.8983 13.0129 14.1464 13.802 13.5876 14.7233C13.0288 15.6445 12.6764 16.676 12.5547 17.7466H27.4459C27.3209 16.6755 26.9658 15.6441 26.4049 14.723C25.8441 13.802 25.0907 13.0131 24.1966 12.4103ZM31.6141 14.2159C36.3053 14.0659 36.3034 7.26344 31.6141 7.11719C26.9147 7.26219 26.9153 14.0678 31.6141 14.2159Z" fill="url(#paint2_linear_220_296)"/>
<path d="M28.7084 17.7475H36.2441C36.664 17.7487 37.0769 17.8562 37.4441 18.06C37.2737 16.7824 36.6872 15.5965 35.7753 14.6856C35.4922 14.3712 35.0416 14.0394 34.6503 14.3856C33.7903 15.0789 32.7192 15.4575 31.6145 15.4586C30.5099 15.4598 29.438 15.0834 28.5766 14.3919C28.4484 14.287 28.2842 14.2367 28.1193 14.2519C27.9544 14.2671 27.8021 14.3466 27.6953 14.4731C28.2457 15.4872 28.5899 16.6003 28.7078 17.7481L28.7084 17.7475Z" fill="url(#paint3_linear_220_296)"/>
<defs>
<linearGradient id="paint0_linear_220_296" x1="2.56885" y1="16.8449" x2="21.4953" y2="16.8449" gradientUnits="userSpaceOnUse">
<stop stop-color="#AA076B"/>
<stop offset="1" stop-color="#61045F"/>
</linearGradient>
<linearGradient id="paint1_linear_220_296" x1="2.5" y1="26.2492" x2="70.8182" y2="26.2492" gradientUnits="userSpaceOnUse">
<stop stop-color="#AA076B"/>
<stop offset="1" stop-color="#61045F"/>
</linearGradient>
<linearGradient id="paint2_linear_220_296" x1="12.5234" y1="20.6033" x2="56.642" y2="20.6033" gradientUnits="userSpaceOnUse">
<stop stop-color="#AA076B"/>
<stop offset="1" stop-color="#61045F"/>
</linearGradient>
<linearGradient id="paint3_linear_220_296" x1="27.6953" y1="16.8241" x2="46.7193" y2="16.8241" gradientUnits="userSpaceOnUse">
<stop stop-color="#AA076B"/>
<stop offset="1" stop-color="#61045F"/>
</linearGradient>
</defs>
</svg>
