<svg width="40" height="41" viewBox="0 0 40 41" fill="none" xmlns="http://www.w3.org/2000/svg">
<path fill-rule="evenodd" clip-rule="evenodd" d="M23.7325 7.34005C19.0288 14.2751 10.31 16.5238 10.31 16.5238C9.98876 16.606 9.64801 16.5573 9.36272 16.3882C9.22146 16.3045 9.09806 16.1939 8.99958 16.0625C8.9011 15.9311 8.82946 15.7816 8.78875 15.6226C8.74804 15.4635 8.73906 15.298 8.76232 15.1354C8.78558 14.9729 8.84063 14.8165 8.92431 14.6753C9.09333 14.39 9.36876 14.1835 9.69 14.1013C9.69 14.1013 17.9925 11.9976 22.0513 5.3338L19.5925 5.31255C19.261 5.30957 18.9442 5.17501 18.7119 4.93848C18.4796 4.70195 18.3508 4.38282 18.3537 4.0513C18.3567 3.71978 18.4913 3.40302 18.7278 3.17071C18.9644 2.9384 19.2835 2.80957 19.615 2.81255L24.965 2.86005C25.2928 2.86234 25.6066 2.99359 25.8384 3.2254C26.0702 3.45722 26.2015 3.77097 26.2037 4.0988L26.25 9.32505C26.253 9.65657 26.1241 9.9757 25.8918 10.2122C25.6595 10.4488 25.3428 10.5833 25.0113 10.5863C24.6797 10.5893 24.3606 10.4604 24.1241 10.2281C23.8875 9.99583 23.753 9.67907 23.75 9.34755L23.7325 7.34005ZM13.1062 37.8125H7.5C6.83696 37.8125 6.20107 37.5492 5.73223 37.0803C5.26339 36.6115 5 35.9756 5 35.3125V24.0625C5 23.3995 5.26339 22.7636 5.73223 22.2948C6.20107 21.8259 6.83696 21.5626 7.5 21.5626H13.1062V37.8125ZM15.6062 20.3563C15.6062 18.9513 16.745 17.8126 18.15 17.8126H21.7463C23.1512 17.8126 24.29 18.9513 24.29 20.3563V37.8125H15.6062V20.3563ZM26.79 15.3563C26.79 13.9513 27.9287 12.8126 29.3325 12.8126H32.5C33.163 12.8126 33.7989 13.0759 34.2678 13.5448C34.7366 14.0136 35 14.6495 35 15.3126V35.3125C35 35.9756 34.7366 36.6115 34.2678 37.0803C33.7989 37.5492 33.163 37.8125 32.5 37.8125H26.79V15.3563Z" fill="url(#paint0_linear_220_267)"/>
<defs>
<linearGradient id="paint0_linear_220_267" x1="5" y1="26.4941" x2="63.5429" y2="26.4941" gradientUnits="userSpaceOnUse">
<stop stop-color="#AA076B"/>
<stop offset="1" stop-color="#61045F"/>
</linearGradient>
</defs>
</svg>
