<svg width="40" height="41" viewBox="0 0 40 41" fill="none" xmlns="http://www.w3.org/2000/svg">
<g clip-path="url(#clip0_220_292)">
<path d="M3.05816 13.6319H1.17531C0.528115 13.6319 0.00341797 14.1566 0.00341797 14.8038C0.00341797 15.451 0.528115 15.9757 1.17531 15.9757H3.05816C4.61045 15.9185 4.611 13.6893 3.05816 13.6319ZM38.8322 13.6319H36.9494C36.3022 13.6319 35.7775 14.1566 35.7775 14.8038C35.7775 15.451 36.3022 15.9757 36.9494 15.9757H38.8322C40.3846 15.9185 40.3851 13.6893 38.8322 13.6319ZM7.19276 3.64997C8.33075 4.70718 9.90765 3.13137 8.85006 1.99268L7.51886 0.661481C7.06128 0.203895 6.31923 0.203895 5.86157 0.661481C5.4039 1.11907 5.4039 1.86111 5.86157 2.31878L7.19276 3.64997ZM32.8149 25.9576C31.6768 24.9004 30.1 26.4762 31.1576 27.6148L32.4888 28.946C32.9463 29.4035 33.6882 29.4039 34.146 28.946C34.6037 28.4885 34.6037 27.7464 34.146 27.2887L32.8149 25.9576ZM7.19276 25.9576L5.86157 27.2887C5.4039 27.7463 5.4039 28.4884 5.86157 28.946C6.31908 29.4035 7.06104 29.4039 7.51886 28.946L8.85006 27.6148C9.90734 26.4768 8.3313 24.9001 7.19276 25.9576ZM32.4888 0.661481L31.1576 1.99268C30.6999 2.45026 30.6999 3.19231 31.1576 3.64997C31.6151 4.10748 32.357 4.10779 32.8149 3.64997L34.146 2.31878C35.2033 1.18071 33.6274 -0.395881 32.4888 0.661481ZM25.5101 15.9757L23.3 18.1858C24.5321 20.569 22.6989 23.5431 20.0037 23.507C17.9733 23.507 16.3214 21.8552 16.3214 19.8247C16.2856 17.1297 19.2595 15.2961 21.6427 16.5285L24.196 13.9751C24.3048 13.8662 24.434 13.7799 24.5762 13.721C24.7184 13.6621 24.8707 13.6318 25.0246 13.6318H33.0473C31.2312 -2.16388 8.77045 -2.15232 6.9601 13.6318H14.4974L16.7075 11.4217C15.4754 9.0385 17.3086 6.06439 20.0038 6.1004C22.0343 6.1004 23.6862 7.75231 23.6862 9.78273C23.722 12.4777 20.7481 14.3113 18.3648 13.0789L15.8115 15.6323C15.7027 15.7411 15.5735 15.8275 15.4313 15.8864C15.2892 15.9453 15.1368 15.9756 14.9829 15.9756H6.96096C7.25636 19.2493 8.77959 22.3032 11.2439 24.4917C12.586 25.7323 13.4565 27.3993 13.7234 29.1887C13.7263 29.1883 26.2797 29.1883 26.2841 29.1887C26.5508 27.3997 27.4215 25.7325 28.7637 24.4917C31.228 22.3033 32.7513 19.2493 33.0467 15.9756H25.5101V15.9757ZM13.811 32.871C13.811 35.885 15.9758 38.4016 18.832 38.9511C18.7155 40.7668 21.2927 40.7657 21.1757 38.9511C24.0319 38.4016 26.1967 35.885 26.1967 32.871V31.5323H13.811V32.871Z" fill="url(#paint0_linear_220_292)"/>
<path d="M21.3423 9.78198C21.3423 9.04392 20.7417 8.44336 20.0037 8.44336C18.2303 8.5107 18.2307 11.0535 20.0037 11.1206C20.7417 11.1205 21.3423 10.52 21.3423 9.78198ZM18.665 19.8238C18.665 20.5619 19.2656 21.1624 20.0037 21.1624C21.777 21.0951 21.7766 18.5523 20.0037 18.4853C19.2656 18.4853 18.665 19.0857 18.665 19.8238Z" fill="url(#paint1_linear_220_292)"/>
</g>
<defs>
<linearGradient id="paint0_linear_220_292" x1="0.00341797" y1="27.3771" x2="78.0474" y2="27.3771" gradientUnits="userSpaceOnUse">
<stop stop-color="#AA076B"/>
<stop offset="1" stop-color="#61045F"/>
</linearGradient>
<linearGradient id="paint1_linear_220_292" x1="18.665" y1="17.0493" x2="23.8895" y2="17.0493" gradientUnits="userSpaceOnUse">
<stop stop-color="#AA076B"/>
<stop offset="1" stop-color="#61045F"/>
</linearGradient>
<clipPath id="clip0_220_292">
<rect width="40" height="40" fill="white" transform="translate(0 0.3125)"/>
</clipPath>
</defs>
</svg>
