<svg width="43" height="85" viewBox="0 0 43 85" fill="none" xmlns="http://www.w3.org/2000/svg">
<path d="M2.16204 73.0358C1.98911 73.036 1.81791 73.0704 1.65827 73.1369C1.49863 73.2034 1.35368 73.3007 1.23175 73.4234C1.10981 73.546 1.01328 73.6915 0.947698 73.8515C0.882111 74.0115 0.848755 74.1829 0.849545 74.3559L0.885545 83.5478C0.886736 83.8958 1.02591 84.2291 1.27252 84.4746C1.51914 84.7201 1.85307 84.8577 2.20105 84.8573L37.796 84.8138C38.1445 84.8138 38.4788 84.6754 38.7252 84.429C38.9716 84.1826 39.11 83.8483 39.11 83.4998V74.3063C39.1112 74.1342 39.0784 73.9635 39.0133 73.8042C38.9483 73.6448 38.8523 73.4999 38.731 73.3777C38.6097 73.2556 38.4655 73.1587 38.3065 73.0925C38.1476 73.0264 37.9772 72.9923 37.805 72.9923C31.6625 72.9923 2.16204 73.0358 2.16204 73.0358ZM34.22 70.0388L42.095 2.49385C42.242 1.47685 41.201 0.551347 40.205 0.873847L1.49004 11.6588C0.785045 11.8538 0.320046 12.5438 0.410046 13.2788L7.02505 70.0388C7.02505 70.0388 33.1505 70.0329 34.22 70.0388ZM24.23 60.6788H16.85C14.882 60.6413 14.8775 57.7163 16.85 57.6788H24.23C26.201 57.7088 26.2055 60.6488 24.23 60.6788ZM26.36 53.5388H14.735C12.7655 53.5028 12.7625 50.5658 14.735 50.5388H26.36C28.3265 50.5644 28.3355 53.5014 26.36 53.5388ZM28.16 46.3839H12.92C10.955 46.3478 10.946 43.4213 12.92 43.3838H28.16C30.125 43.4198 30.134 46.3463 28.16 46.3839ZM27.47 29.8688L28.415 35.1638C28.52 35.7338 28.295 36.2888 27.83 36.6338C27.6093 36.8014 27.3456 36.903 27.0696 36.9269C26.7935 36.9508 26.5163 36.896 26.27 36.7688L21.26 34.2338L16.25 36.7688C15.194 37.3448 13.832 36.3428 14.09 35.1638L15.035 29.8688L11.03 26.1188C10.8239 25.9256 10.6765 25.6781 10.6048 25.4047C10.5332 25.1314 10.5402 24.8434 10.625 24.5738C10.7064 24.3026 10.8643 24.0607 11.0798 23.8771C11.2954 23.6935 11.5594 23.576 11.84 23.5388L17.435 22.7588L19.925 17.8988C20.435 16.9088 22.07 16.9088 22.595 17.8988L25.07 22.7588L30.665 23.5388C31.235 23.6138 31.715 24.0188 31.88 24.5738C32.06 25.1138 31.91 25.7138 31.49 26.1188L27.47 29.8688Z" fill="url(#paint0_linear_220_363)"/>
<path d="M22.7602 24.813L21.2602 21.873L19.7452 24.813C19.5202 25.248 19.1002 25.548 18.6202 25.623L15.3652 26.073L17.6752 28.248C18.0502 28.593 18.2152 29.103 18.1252 29.598L17.5702 32.733L20.5702 31.218C21.0067 31.0035 21.5002 30.996 21.9352 31.218L24.9352 32.733L24.3802 29.598C24.2902 29.103 24.4552 28.593 24.8302 28.248L27.1402 26.073L23.8852 25.623C23.4052 25.548 22.9852 25.248 22.7602 24.813Z" fill="url(#paint1_linear_220_363)"/>
<defs>
<linearGradient id="paint0_linear_220_363" x1="0.398926" y1="57.6774" x2="81.7931" y2="57.6774" gradientUnits="userSpaceOnUse">
<stop stop-color="#AA076B"/>
<stop offset="1" stop-color="#61045F"/>
</linearGradient>
<linearGradient id="paint1_linear_220_363" x1="15.3652" y1="29.2211" x2="38.3433" y2="29.2211" gradientUnits="userSpaceOnUse">
<stop stop-color="#AA076B"/>
<stop offset="1" stop-color="#61045F"/>
</linearGradient>
</defs>
</svg>
