<svg width="82" height="87" viewBox="0 0 82 87" fill="none" xmlns="http://www.w3.org/2000/svg">
<path d="M26.3014 58.0011C23.8549 59.9142 21.8764 62.3595 20.516 65.1513C19.1555 67.9432 18.449 71.0083 18.4499 74.114V80.264H6.14998C2.74699 80.264 0 77.517 0 74.114V70.014C0 62.0805 6.41648 55.6641 14.3499 55.6641H18.4499C21.3609 55.6641 24.0464 56.5251 26.3014 58.0011Z" fill="url(#paint0_linear_220_343)"/>
<path d="M65.6 55.6648C70.6948 55.6648 74.8249 51.5346 74.8249 46.4398C74.8249 41.345 70.6948 37.2148 65.6 37.2148C60.5052 37.2148 56.375 41.345 56.375 46.4398C56.375 51.5346 60.5052 55.6648 65.6 55.6648Z" fill="url(#paint1_linear_220_343)"/>
<path d="M16.3998 55.6648C21.4946 55.6648 25.6247 51.5346 25.6247 46.4398C25.6247 41.345 21.4946 37.2148 16.3998 37.2148C11.305 37.2148 7.1748 41.345 7.1748 46.4398C7.1748 51.5346 11.305 55.6648 16.3998 55.6648Z" fill="url(#paint2_linear_220_343)"/>
<path d="M81.9996 70.014V74.114C81.9996 77.517 79.2527 80.264 75.8497 80.264H63.5497V74.114C63.5497 67.5745 60.4747 61.7525 55.6982 58.0011C57.9532 56.5251 60.6387 55.6641 63.5497 55.6641H67.6497C75.5832 55.6641 81.9996 62.0805 81.9996 70.014Z" fill="url(#paint3_linear_220_343)"/>
<path d="M40.9996 57.714C47.2266 57.714 52.2745 52.666 52.2745 46.439C52.2745 40.212 47.2266 35.1641 40.9996 35.1641C34.7726 35.1641 29.7246 40.212 29.7246 46.439C29.7246 52.666 34.7726 57.714 40.9996 57.714Z" fill="url(#paint4_linear_220_343)"/>
<path d="M43.0498 57.7148H38.9498C29.9073 57.7148 22.5499 65.0722 22.5499 74.1147V80.2647C22.5499 83.6554 25.3091 86.4147 28.6998 86.4147H53.2997C56.6904 86.4147 59.4497 83.6554 59.4497 80.2647V74.1147C59.4497 65.0722 52.0923 57.7148 43.0498 57.7148ZM70.7247 28.3671L65.778 30.126C65.4535 30.2414 65.1058 30.2759 64.7649 30.2267C64.424 30.1775 64.1003 30.0459 63.8217 29.8434C63.5431 29.6409 63.318 29.3736 63.166 29.0646C63.0139 28.7556 62.9395 28.4141 62.949 28.0698L63.0925 22.8219L59.8905 18.6604C59.6807 18.3873 59.5405 18.0673 59.482 17.7279C59.4236 17.3885 59.4486 17.04 59.555 16.7125C59.6613 16.3849 59.8458 16.0882 60.0925 15.8479C60.3391 15.6076 60.6406 15.431 60.9708 15.3332L66.0076 13.849L68.976 9.51742C69.1707 9.23329 69.4317 9.00088 69.7363 8.84029C70.041 8.6797 70.3802 8.59578 70.7247 8.59578C71.0691 8.59578 71.4083 8.6797 71.713 8.84029C72.0177 9.00088 72.2786 9.23329 72.4733 9.51742L75.4417 13.849L80.4785 15.3332C81.9074 15.7535 82.467 17.4796 81.5589 18.6604L78.3568 22.8219L78.5003 28.0698C78.5094 28.414 78.4346 28.7551 78.2824 29.0639C78.1302 29.3727 77.9052 29.6398 77.6267 29.8422C77.3483 30.0445 77.0247 30.1761 76.6841 30.2256C76.3434 30.275 75.9958 30.2409 75.6713 30.126L70.7247 28.3671ZM11.2749 28.3671L6.32827 30.126C6.00376 30.2414 5.65602 30.2759 5.31514 30.2267C4.97427 30.1775 4.65052 30.0459 4.37192 29.8434C4.09332 29.6409 3.86826 29.3736 3.71621 29.0646C3.56416 28.7556 3.4897 28.4141 3.49928 28.0698L3.64278 22.8219L0.440688 18.6604C0.230886 18.3873 0.0907063 18.0673 0.0322534 17.7279C-0.0261994 17.3885 -0.00116851 17.04 0.105185 16.7125C0.211538 16.3849 0.396016 16.0882 0.642691 15.8479C0.889367 15.6076 1.19082 15.431 1.52103 15.3332L6.55786 13.849L9.52625 9.51742C9.72092 9.23329 9.98188 9.00088 10.2866 8.84029C10.5913 8.6797 10.9305 8.59578 11.2749 8.59578C11.6193 8.59578 11.9585 8.6797 12.2632 8.84029C12.5679 9.00088 12.8289 9.23329 13.0235 9.51742L15.9919 13.849L21.0288 15.3332C22.4576 15.7535 23.0173 17.4796 22.1091 18.6604L18.907 22.8219L19.0505 28.0698C19.0596 28.414 18.9848 28.7551 18.8326 29.0639C18.6804 29.3727 18.4554 29.6398 18.1769 29.8422C17.8985 30.0445 17.575 30.1761 17.2343 30.2256C16.8936 30.275 16.546 30.2409 16.2215 30.126L11.2749 28.3671ZM40.9998 23.7546L35.1348 25.8395C34.7501 25.9761 34.3379 26.0171 33.9338 25.9587C33.5297 25.9003 33.146 25.7443 32.8157 25.5043C32.4855 25.2643 32.2187 24.9474 32.0384 24.5811C31.8581 24.2148 31.7697 23.8101 31.781 23.402L31.9511 17.1803L28.1545 12.246C27.9058 11.9222 27.7397 11.5427 27.6705 11.1404C27.6012 10.7381 27.6309 10.3249 27.7571 9.93665C27.8832 9.54837 28.1019 9.19663 28.3944 8.91179C28.6869 8.62695 29.0443 8.41759 29.4358 8.30177L35.4074 6.54083L38.9272 1.4056C39.158 1.06862 39.4675 0.792971 39.8288 0.602506C40.1901 0.412041 40.5924 0.3125 41.0008 0.3125C41.4092 0.3125 41.8115 0.412041 42.1728 0.602506C42.5341 0.792971 42.8436 1.06862 43.0744 1.4056L46.5942 6.54083L52.5658 8.30177C52.9573 8.41759 53.3147 8.62695 53.6072 8.91179C53.8997 9.19663 54.1184 9.54837 54.2445 9.93665C54.3707 10.3249 54.4004 10.7381 54.3311 11.1404C54.2619 11.5427 54.0958 11.9222 53.8471 12.246L50.0505 17.1803L50.2206 23.402C50.2319 23.8101 50.1435 24.2148 49.9632 24.5811C49.783 24.9474 49.5161 25.2643 49.1859 25.5043C48.8556 25.7443 48.4719 25.9003 48.0678 25.9587C47.6638 26.0171 47.2516 25.9761 46.8669 25.8395L40.9998 23.7546Z" fill="url(#paint5_linear_220_343)"/>
<defs>
<linearGradient id="paint0_linear_220_343" x1="0" y1="72.3088" x2="51.3253" y2="72.3088" gradientUnits="userSpaceOnUse">
<stop stop-color="#AA076B"/>
<stop offset="1" stop-color="#61045F"/>
</linearGradient>
<linearGradient id="paint1_linear_220_343" x1="56.375" y1="49.6984" x2="92.3787" y2="49.6984" gradientUnits="userSpaceOnUse">
<stop stop-color="#AA076B"/>
<stop offset="1" stop-color="#61045F"/>
</linearGradient>
<linearGradient id="paint2_linear_220_343" x1="7.1748" y1="49.6984" x2="43.1785" y2="49.6984" gradientUnits="userSpaceOnUse">
<stop stop-color="#AA076B"/>
<stop offset="1" stop-color="#61045F"/>
</linearGradient>
<linearGradient id="paint3_linear_220_343" x1="55.6982" y1="72.3088" x2="107.024" y2="72.3088" gradientUnits="userSpaceOnUse">
<stop stop-color="#AA076B"/>
<stop offset="1" stop-color="#61045F"/>
</linearGradient>
<linearGradient id="paint4_linear_220_343" x1="29.7246" y1="50.4217" x2="73.7292" y2="50.4217" gradientUnits="userSpaceOnUse">
<stop stop-color="#AA076B"/>
<stop offset="1" stop-color="#61045F"/>
</linearGradient>
<linearGradient id="paint5_linear_220_343" x1="0.00146484" y1="58.5707" x2="160.016" y2="58.5707" gradientUnits="userSpaceOnUse">
<stop stop-color="#AA076B"/>
<stop offset="1" stop-color="#61045F"/>
</linearGradient>
</defs>
</svg>
