<svg width="96" height="97" viewBox="0 0 96 97" fill="none" xmlns="http://www.w3.org/2000/svg">
<g clip-path="url(#clip0_220_354)">
<path fill-rule="evenodd" clip-rule="evenodd" d="M43.4565 11.2944L43.4567 11.2942L48.0002 0.3125L52.5435 11.2944L63.489 12.5157L55.3515 19.9363L57.5724 30.7239L47.9998 25.2779L38.4276 30.7241L40.6487 19.9363L32.5114 12.5159L43.4565 11.2944ZM20.2575 81.9659C18.7924 81.1827 18.2376 79.3528 19.0213 77.8874C19.0213 77.8874 21.9596 72.3942 21.9613 72.3903C22.7327 70.9479 24.6039 70.3848 26.043 71.1537C27.4843 71.9255 28.0474 73.7937 27.2769 75.2332L24.3317 80.738C23.5451 82.1964 21.7204 82.748 20.2575 81.9659ZM79.758 67.4248C79.2623 66.8126 78.6567 66.2982 77.9724 65.9081L61.9603 56.7821C60.5591 55.9827 59.1156 55.6674 57.6493 55.6674C54.8117 55.6674 51.8895 56.8507 49.0325 58.0063C43.6052 60.2051 38.8596 62.1256 34.4242 57.2831C38.7242 54.6736 42.3977 51.8413 45.3615 48.8469C46.6663 47.5282 47.9919 46.4004 49.3007 45.4951C55.5561 41.1708 59.8828 42.9389 64.0672 44.6491C67.1175 45.8962 70.2714 47.1862 73.5754 45.4664L80.1236 41.9615L88.5424 63.6804L79.758 67.4248ZM77.582 72.8199C78.3707 71.3861 77.828 69.5444 76.3725 68.7148L60.3604 59.5888C57.6092 58.0196 54.1961 59.4011 50.2449 61.0027C44.3106 63.4034 36.9253 66.395 30.6821 57.7919C30.549 57.6083 30.456 57.3987 30.4091 57.1768C30.3623 56.9549 30.3626 56.7256 30.41 56.5038C30.4576 56.2821 30.5513 56.0729 30.6851 55.8898C30.8189 55.7068 30.9898 55.554 31.1867 55.4414C35.9413 52.7167 39.9377 49.7337 43.0646 46.5736C43.8473 45.7808 44.6684 45.027 45.5252 44.3148C41.9749 42.7019 38.9679 43.4116 35.8131 44.1577C32.763 44.8779 29.6098 45.623 26.391 43.8423L17.2697 39.6343L7.54518 60.3262C7.70586 60.3967 7.88343 60.4777 8.07993 60.5662C10.8019 61.7922 15.8687 64.076 16.7989 64.4379C19.1764 65.36 19.7481 67.6685 20.0934 69.5083C20.8288 68.7346 21.7562 68.1592 22.809 67.8401C24.4089 67.3561 26.0977 67.5219 27.5642 68.3049C29.0263 69.0841 30.101 70.3951 30.5874 71.9937C30.7076 72.3882 30.7891 72.7934 30.8308 73.2037C32.2389 72.8902 33.7611 73.0559 35.1304 73.7896C36.5925 74.5689 37.6672 75.8799 38.1536 77.4785C38.1851 77.5814 38.214 77.6862 38.2399 77.792C38.3389 77.7561 38.439 77.7231 38.5401 77.693C40.14 77.2063 41.8288 77.372 43.2951 78.158C44.7572 78.9354 45.8317 80.2454 46.3179 81.845C46.3496 81.9498 46.3783 82.0527 46.4042 82.1576C46.5037 82.1228 46.6039 82.0898 46.7046 82.0586C48.3045 81.5746 49.9931 81.7404 51.4595 82.5236C52.1657 82.8991 52.7923 83.408 53.3047 84.0221L60.3302 87.9072C61.7867 88.7096 63.6229 88.1759 64.4239 86.7202C65.2168 85.2759 64.6776 83.4363 63.2218 82.6188L53.3387 77.0549C52.5611 76.6168 52.2855 75.6316 52.7231 74.8542C52.8271 74.6694 52.9666 74.5068 53.1335 74.3758C53.3004 74.2449 53.4915 74.1481 53.6958 74.091C53.9002 74.034 54.1137 74.0177 54.3243 74.0433C54.535 74.0688 54.7385 74.1356 54.9232 74.2398L67.4269 81.227C68.883 82.0273 70.7196 81.4936 71.5204 80.0381C72.3133 78.5956 71.7742 76.7561 70.3183 75.9367C70.2789 75.9138 60.4367 70.349 60.4367 70.349C59.6601 69.9088 59.3857 68.9227 59.8245 68.1483C60.2636 67.3709 61.2491 67.0955 62.0257 67.5339L73.5043 74.0178C74.9062 74.8092 76.8099 74.2233 77.582 72.8199ZM58.6374 94.1024C57.8364 95.5582 55.9999 96.0918 54.5437 95.2923L52.3569 94.088L54.0219 90.9746C54.4291 90.2147 54.6733 89.3781 54.7387 88.5185L57.4305 89.999L57.4449 90.0067C58.9012 90.8127 59.436 92.6504 58.6374 94.1024ZM46.569 96.1801C45.795 96.4145 44.9803 96.3354 44.2751 95.9581C42.8096 95.1749 42.2548 93.3449 43.0384 91.8787L45.8574 86.6082C46.6297 85.1649 48.4948 84.6009 49.9387 85.3745C51.3544 86.1318 51.9484 88.0021 51.1729 89.4521L48.3542 94.7225C47.9767 95.4277 47.343 95.9459 46.569 96.1801ZM38.0016 92.5657C37.2276 92.8001 36.4129 92.7209 35.7075 92.3437C34.242 91.5605 33.6876 89.7305 34.4713 88.2643L37.6918 82.2423C37.6918 82.2423 37.6922 82.2423 37.6922 82.2414C38.0692 81.5364 38.7032 81.0191 39.4772 80.7847C40.2512 80.5503 41.0662 80.6294 41.7741 81.0067C42.4759 81.3802 42.9921 82.0128 43.227 82.7864C43.4632 83.5638 43.3856 84.3792 43.0082 85.0844L39.7867 91.1084C39.4099 91.8121 38.7757 92.3313 38.0016 92.5657ZM29.0745 89.6238C29.8487 89.3894 30.4822 88.8703 30.8597 88.1653L34.8431 80.7179C35.613 79.2785 35.0494 77.4101 33.6096 76.6413C32.2159 75.8954 30.2818 76.4669 29.5352 77.8608C29.5333 77.8648 25.5442 85.3226 25.5442 85.3226C24.7601 86.7888 25.3146 88.6179 26.7806 89.402C27.4858 89.7791 28.3007 89.8582 29.0745 89.6238ZM85.9492 26.0373L85.9496 26.0375L87.69 34.4923L80.1875 30.2231L72.6844 34.4924L74.4253 26.0375L68.0471 20.2211L76.6262 19.2641L80.1874 11.4001L83.7486 19.2633L92.3276 20.2214L85.9492 26.0373ZM3.67236 20.2207L12.2516 19.2637L15.8128 11.3997L19.3742 19.2629L27.9525 20.2211L21.5749 26.0371L23.3158 34.4921L15.8128 30.2229L8.30999 34.4921L10.0506 26.0371L3.67236 20.2207Z" fill="url(#paint0_linear_220_354)"/>
</g>
<defs>
<linearGradient id="paint0_linear_220_354" x1="3.67236" y1="65.2676" x2="176.677" y2="65.2676" gradientUnits="userSpaceOnUse">
<stop stop-color="#AA076B"/>
<stop offset="1" stop-color="#61045F"/>
</linearGradient>
<clipPath id="clip0_220_354">
<rect width="96" height="96" fill="white" transform="translate(0 0.3125)"/>
</clipPath>
</defs>
</svg>
