<svg width="96" height="97" viewBox="0 0 96 97" fill="none" xmlns="http://www.w3.org/2000/svg">
<path d="M83.8587 59.9699C83.2741 57.5144 82.3015 55.1678 80.9774 53.0188L82.9823 48.5047L77.6603 43.1829L73.1449 45.1891C70.9965 43.8655 68.6507 42.8931 66.196 42.3084L64.4223 37.7004H56.8962L55.1226 42.3084C52.6679 42.893 50.3221 43.8655 48.1737 45.1891L43.6581 43.1829L38.3363 48.5049L40.3414 53.0199C39.0177 55.1684 38.0452 57.5143 37.4605 59.9692L32.8531 61.7427V69.269L37.4599 71.0422C38.0445 73.4979 39.0172 75.8446 40.3412 77.9937L38.3363 82.5076L43.6581 87.8296L48.1737 85.8234C50.3221 87.147 52.6679 88.1194 55.1226 88.7041L56.8962 93.3125H64.4224L66.1956 88.7056C68.6511 88.121 70.9975 87.1484 73.1464 85.8243L77.6605 87.8293L82.9823 82.5072L80.9761 77.9919C82.2997 75.8435 83.2721 73.4977 83.8568 71.0429L88.4648 69.2694V61.7431L83.8587 59.9699ZM60.6593 78.6313C58.0634 78.6313 55.5258 77.8615 53.3675 76.4193C51.2091 74.9771 49.5268 72.9273 48.5334 70.529C47.54 68.1307 47.2801 65.4917 47.7865 62.9457C48.2929 60.3997 49.543 58.061 51.3785 56.2255C53.2141 54.3899 55.5527 53.1399 58.0988 52.6334C60.6448 52.127 63.2838 52.3869 65.682 53.3803C68.0803 54.3737 70.1302 56.056 71.5723 58.2144C73.0145 60.3728 73.7843 62.9104 73.7843 65.5063C73.7843 68.9872 72.4015 72.3256 69.9401 74.787C67.4787 77.2484 64.1403 78.6312 60.6593 78.6313ZM68.0693 60.2126C68.4344 60.5761 68.6404 61.0697 68.6419 61.5849C68.6435 62.1001 68.4406 62.595 68.0778 62.9607C65.4886 65.5737 62.917 68.204 60.3153 70.8052C59.95 71.1703 59.4546 71.3754 58.9382 71.3754C58.4217 71.3754 57.9263 71.1703 57.5611 70.8052L53.2458 66.4899C52.8805 66.1246 52.6753 65.6293 52.6753 65.1128C52.6753 64.5962 52.8804 64.1008 53.2457 63.7356C53.6109 63.3703 54.1062 63.1651 54.6228 63.1651C55.1393 63.1651 55.6347 63.3703 55.9999 63.7355L58.9339 66.6695L65.3187 60.2212C65.4986 60.0398 65.7126 59.8957 65.9483 59.7971C66.184 59.6985 66.4368 59.6474 66.6923 59.6466C66.9478 59.6459 67.201 59.6955 67.4372 59.7927C67.6735 59.8899 67.8883 60.0328 68.0693 60.2131V60.2126ZM61.0966 12.8334V3.45725C61.2789 3.54183 61.4446 3.65849 61.5858 3.80169L70.9634 13.1793C71.1066 13.3204 71.2233 13.4861 71.3078 13.6685H61.9311C61.7099 13.6679 61.4979 13.5797 61.3415 13.4232C61.1851 13.2667 61.097 13.0546 61.0966 12.8334ZM36.9818 78.1664C36.1501 76.6134 35.4738 74.982 34.9628 73.2959L29.8531 71.3293V59.6834L34.9634 57.7164C35.0489 57.4344 35.139 57.1539 35.2337 56.8751H32.8525C32.4547 56.8751 32.0731 56.717 31.7918 56.4357C31.5105 56.1544 31.3525 55.7729 31.3525 55.3751C31.3525 54.9772 31.5105 54.5957 31.7918 54.3144C32.0731 54.0331 32.4547 53.8751 32.8525 53.8751H36.4594C36.6259 53.5288 36.8 53.1862 36.9816 52.8472L34.7581 47.8409L36.2333 46.3657H32.8531C32.4552 46.3657 32.0737 46.2077 31.7924 45.9263C31.5111 45.645 31.3531 45.2635 31.3531 44.8657C31.3531 44.4679 31.5111 44.0863 31.7924 43.805C32.0737 43.5237 32.4552 43.3657 32.8531 43.3657H39.2337L42.9936 39.6054L47.9999 41.8293C49.5524 40.998 51.1832 40.3219 52.8685 39.8109L53.1036 39.2H32.8531C32.4552 39.2 32.0737 39.042 31.7924 38.7607C31.5111 38.4794 31.3531 38.0978 31.3531 37.7C31.3531 37.3022 31.5111 36.9206 31.7924 36.6393C32.0737 36.358 32.4552 36.2 32.8531 36.2H54.2592L54.8365 34.7H66.4821L68.4494 39.8107C69.4717 40.1206 70.4746 40.4916 71.4526 40.9214V16.6685H61.9311C60.9143 16.6676 59.9395 16.2632 59.2206 15.5441C58.5017 14.8251 58.0975 13.8502 58.0967 12.8334V3.3125H9.20443C8.76171 3.31334 8.33737 3.48959 8.02432 3.80264C7.71126 4.11569 7.53502 4.54003 7.53418 4.98275V84.4863C7.53502 84.929 7.71126 85.3534 8.02432 85.6664C8.33737 85.9795 8.76171 86.1557 9.20443 86.1566H37.7436L34.759 83.1721L36.9818 78.1664ZM32.8531 18.5249H64.1774C64.5752 18.5249 64.9567 18.683 65.238 18.9643C65.5193 19.2456 65.6774 19.6271 65.6774 20.0249C65.6774 20.4228 65.5193 20.8043 65.238 21.0856C64.9567 21.3669 64.5752 21.5249 64.1774 21.5249H32.8531C32.4552 21.5249 32.0737 21.3669 31.7924 21.0856C31.5111 20.8043 31.3531 20.4228 31.3531 20.0249C31.3531 19.6271 31.5111 19.2456 31.7924 18.9643C32.0737 18.683 32.4552 18.5249 32.8531 18.5249ZM32.8531 25.6901H64.1774C64.5752 25.6901 64.9567 25.8481 65.238 26.1294C65.5193 26.4107 65.6774 26.7922 65.6774 27.1901C65.6774 27.5879 65.5193 27.9694 65.238 28.2507C64.9567 28.532 64.5752 28.6901 64.1774 28.6901H32.8531C32.4552 28.6901 32.0737 28.532 31.7924 28.2507C31.5111 27.9694 31.3531 27.5879 31.3531 27.1901C31.3531 26.7922 31.5111 26.4107 31.7924 26.1294C32.0737 25.8481 32.4552 25.6901 32.8531 25.6901ZM24.2146 62.1601C24.2138 62.5577 24.0555 62.9388 23.7743 63.2199C23.4932 63.501 23.1121 63.6593 22.7146 63.6601H16.3094C15.9118 63.6593 15.5307 63.501 15.2496 63.2199C14.9685 62.9388 14.8102 62.5577 14.8094 62.1601V55.7551C14.8102 55.3575 14.9685 54.9765 15.2496 54.6953C15.5307 54.4142 15.9118 54.2559 16.3094 54.2551H22.7146C23.1121 54.2559 23.4932 54.4142 23.7743 54.6953C24.0555 54.9765 24.2138 55.3575 24.2146 55.7551V62.1601ZM24.2146 44.4852C24.2138 44.8828 24.0555 45.2639 23.7743 45.545C23.4932 45.8262 23.1121 45.9845 22.7146 45.9852H16.3094C15.9118 45.9845 15.5307 45.8262 15.2496 45.545C14.9685 45.2639 14.8102 44.8828 14.8094 44.4852V38.0801C14.8102 37.6825 14.9685 37.3014 15.2496 37.0203C15.5307 36.7391 15.9118 36.5809 16.3094 36.5801H22.7146C23.1121 36.5809 23.4932 36.7391 23.7743 37.0203C24.0555 37.3014 24.2138 37.6825 24.2146 38.0801V44.4852ZM24.2146 26.8102C24.2138 27.2078 24.0555 27.5888 23.7743 27.87C23.4932 28.1511 23.1121 28.3094 22.7146 28.3102H16.3094C15.9118 28.3094 15.5307 28.1511 15.2496 27.87C14.9685 27.5888 14.8102 27.2078 14.8094 26.8102V20.405C14.8102 20.0074 14.9685 19.6263 15.2496 19.3452C15.5307 19.0641 15.9118 18.9058 16.3094 18.905H22.7146C23.1121 18.9058 23.4932 19.0641 23.7743 19.3452C24.0555 19.6263 24.2138 20.0074 24.2146 20.405V26.8102Z" fill="url(#paint0_linear_220_333)"/>
<defs>
<linearGradient id="paint0_linear_220_333" x1="7.53418" y1="64.208" x2="165.465" y2="64.208" gradientUnits="userSpaceOnUse">
<stop stop-color="#AA076B"/>
<stop offset="1" stop-color="#61045F"/>
</linearGradient>
</defs>
</svg>
