<svg width="178" height="55" viewBox="0 0 178 55" fill="none" xmlns="http://www.w3.org/2000/svg">
<path d="M28.0438 16.4125C28.0438 23.1904 22.5517 28.6825 15.7738 28.6825C8.99594 28.6825 3.50391 23.1904 3.50391 16.4125C3.50391 9.63461 8.99594 4.14258 15.7738 4.14258C22.5517 4.14258 28.0438 9.63952 28.0438 16.4125Z" fill="#FF492C"/>
<path d="M21.0849 14.4113H17.9144V14.2641C17.9144 13.7242 18.0224 13.2776 18.2383 12.9291C18.4543 12.5758 18.8273 12.2666 19.3672 11.9917L19.6126 11.869C20.0494 11.6481 20.1622 11.4567 20.1622 11.231C20.1622 10.961 19.9267 10.7647 19.5487 10.7647C19.0972 10.7647 18.7586 11.0003 18.523 11.4764L17.9144 10.8678C18.0469 10.5832 18.2629 10.3574 18.5475 10.1758C18.8371 9.99421 19.1561 9.90586 19.5046 9.90586C19.9414 9.90586 20.3193 10.0187 20.6285 10.2543C20.9475 10.4899 21.1046 10.8138 21.1046 11.2212C21.1046 11.8739 20.7365 12.2715 20.0494 12.6248L19.6616 12.8212C19.2494 13.0273 19.0481 13.2138 18.9892 13.5426H21.0849V14.4113ZM20.8052 15.4126H17.3353L15.6027 18.4162H19.0727L20.8101 21.4199L22.5426 18.4162L20.8052 15.4126ZM15.9021 20.4236C13.6935 20.4236 11.8972 18.6273 11.8972 16.4187C11.8972 14.2101 13.6935 12.4138 15.9021 12.4138L17.2764 9.54267C16.8297 9.45433 16.3733 9.41016 15.9021 9.41016C12.0297 9.41016 8.88867 12.5512 8.88867 16.4187C8.88867 20.2911 12.0248 23.4322 15.9021 23.4322C17.4432 23.4322 18.8714 22.9316 20.0297 22.0874L18.5083 19.4567C17.8113 20.0555 16.8984 20.4236 15.9021 20.4236Z" fill="white"/>
<path d="M46.5 7.75586L48.3819 13.5476L48.4941 13.8931H48.8574H54.9473L50.0205 17.4726L49.7266 17.6862L49.8388 18.0317L51.7207 23.8235L46.7939 20.2439L46.5 20.0304L46.2061 20.2439L41.2793 23.8235L43.1612 18.0317L43.2734 17.6862L42.9795 17.4726L38.0527 13.8931H44.1426H44.5059L44.6181 13.5476L46.5 7.75586Z" fill="#FF492C" stroke="#FF492C"/>
<path d="M67.5 7.75586L69.3819 13.5476L69.4941 13.8931H69.8574H75.9473L71.0205 17.4726L70.7266 17.6862L70.8388 18.0317L72.7207 23.8235L67.7939 20.2439L67.5 20.0304L67.2061 20.2439L62.2793 23.8235L64.1612 18.0317L64.2734 17.6862L63.9795 17.4726L59.0527 13.8931H65.1426H65.5059L65.6181 13.5476L67.5 7.75586Z" fill="#FF492C" stroke="#FF492C"/>
<path d="M88.5 7.75586L90.3819 13.5476L90.4941 13.8931H90.8574H96.9473L92.0205 17.4726L91.7266 17.6862L91.8388 18.0317L93.7207 23.8235L88.7939 20.2439L88.5 20.0304L88.2061 20.2439L83.2793 23.8235L85.1612 18.0317L85.2734 17.6862L84.9795 17.4726L80.0527 13.8931H86.1426H86.5059L86.6181 13.5476L88.5 7.75586Z" fill="#FF492C" stroke="#FF492C"/>
<path d="M109.5 7.75586L111.382 13.5476L111.494 13.8931H111.857H117.947L113.02 17.4726L112.727 17.6862L112.839 18.0317L114.721 23.8235L109.794 20.2439L109.5 20.0304L109.206 20.2439L104.279 23.8235L106.161 18.0317L106.273 17.6862L105.98 17.4726L101.053 13.8931H107.143H107.506L107.618 13.5476L109.5 7.75586Z" fill="#FF492C" stroke="#FF492C"/>
<path d="M130.5 9.375L131.906 13.7032L132.131 14.3942H132.857H137.408L133.727 17.0692L133.139 17.4963L133.363 18.1873L134.77 22.5155L131.088 19.8405L130.5 19.4135L129.912 19.8405L126.23 22.5155L127.637 18.1873L127.861 17.4963L127.273 17.0692L123.592 14.3942H128.143H128.869L129.094 13.7032L130.5 9.375Z" stroke="#FF492C" stroke-width="2"/>
<path d="M128.144 14.3946H128.87L129.095 13.7036L129.501 12.4531V20.1404L126.232 22.5159L127.638 18.1877L127.862 17.4967L127.275 17.0696L123.593 14.3946H128.144Z" fill="#FF492C" stroke="#FF492C" stroke-width="2"/>
<path d="M0.135 45.3045L0.657 42.9285H1.314L1.008 45.3045H0.135ZM1.287 45.3045L1.809 42.9285H2.466L2.16 45.3045H1.287ZM7.79372 45.8085C8.43272 46.0875 8.84672 46.6635 8.84672 47.4195C8.84672 48.3375 8.17172 49.2285 6.88472 49.2285H4.82372V42.9285H6.56072C7.80272 42.9285 8.40572 43.7025 8.40572 44.5575C8.40572 45.0795 8.18072 45.5205 7.79372 45.8085ZM6.50672 43.7655H5.67872V45.5475H6.49772C7.14572 45.5475 7.54172 45.1335 7.54172 44.6385C7.54172 44.1255 7.15472 43.7655 6.50672 43.7655ZM6.82172 48.3915C7.53272 48.3915 7.95572 47.9415 7.95572 47.3835C7.95572 46.8255 7.54172 46.3935 6.82172 46.3935H5.67872V48.3915H6.82172ZM14.9404 43.7565H12.3394V45.6105H14.3464V46.4295H12.3394V48.4005H14.9404V49.2285H11.4844V42.9285H14.9404V43.7565ZM19.203 49.3185C18.348 49.3185 17.592 48.8415 17.187 48.2205L17.808 47.6355C18.159 48.1395 18.69 48.4905 19.257 48.4905C19.887 48.4905 20.301 48.1035 20.301 47.5995C20.301 46.0875 17.358 46.5195 17.358 44.4585C17.367 43.5495 18.132 42.8385 19.185 42.8385C19.986 42.8385 20.625 43.2705 21.012 43.7385L20.454 44.3145C20.148 43.9725 19.698 43.6575 19.203 43.6575C18.627 43.6575 18.231 43.9995 18.231 44.4675C18.222 45.8355 21.192 45.4845 21.165 47.6085C21.156 48.5535 20.427 49.3185 19.203 49.3185ZM27.047 42.9285V43.7655H25.49V49.2285H24.635V43.7655H23.042V42.9285H27.047ZM36.633 49.3365C34.671 49.3365 33.411 47.8245 33.411 46.0785C33.411 44.3325 34.671 42.8205 36.633 42.8205C37.209 42.8205 37.695 42.9375 38.118 43.1535V44.1165C37.758 43.8285 37.281 43.6485 36.642 43.6485C35.229 43.6485 34.284 44.7825 34.284 46.0785C34.284 47.3745 35.229 48.5085 36.642 48.5085C37.281 48.5085 37.758 48.3285 38.118 48.0405V49.0035C37.695 49.2195 37.209 49.3365 36.633 49.3365ZM42.7174 49.3275C41.3494 49.3275 40.5304 48.4365 40.5304 47.1045V42.9285H41.3854V47.0055C41.3854 47.9865 41.9164 48.4995 42.7174 48.4995C43.5274 48.4995 44.0494 47.9865 44.0494 47.0055V42.9285H44.9044V47.1045C44.9044 48.4365 44.0854 49.3275 42.7174 49.3275ZM49.3249 49.3185C48.4699 49.3185 47.7139 48.8415 47.3089 48.2205L47.9299 47.6355C48.2809 48.1395 48.8119 48.4905 49.3789 48.4905C50.0089 48.4905 50.4229 48.1035 50.4229 47.5995C50.4229 46.0875 47.4799 46.5195 47.4799 44.4585C47.4889 43.5495 48.2539 42.8385 49.3069 42.8385C50.1079 42.8385 50.7469 43.2705 51.1339 43.7385L50.5759 44.3145C50.2699 43.9725 49.8199 43.6575 49.3249 43.6575C48.7489 43.6575 48.3529 43.9995 48.3529 44.4675C48.3439 45.8355 51.3139 45.4845 51.2869 47.6085C51.2779 48.5535 50.5489 49.3185 49.3249 49.3185ZM57.1689 42.9285V43.7655H55.6119V49.2285H54.7569V43.7655H53.1639V42.9285H57.1689ZM62.2128 49.3455C60.2508 49.3455 58.9728 47.8335 58.9728 46.0785C58.9728 44.3325 60.2508 42.8205 62.2128 42.8205C64.1658 42.8205 65.4438 44.3325 65.4438 46.0785C65.4438 47.8335 64.1658 49.3455 62.2128 49.3455ZM62.2128 48.4995C63.6258 48.4995 64.5888 47.3655 64.5888 46.0785C64.5888 44.7915 63.6258 43.6665 62.2128 43.6665C60.7908 43.6665 59.8458 44.7915 59.8458 46.0785C59.8458 47.3655 60.7908 48.4995 62.2128 48.4995ZM74.5263 49.2285H73.6623L72.7893 45.1875L71.0253 49.3005H70.9083L69.1713 45.2325L68.3523 49.2285H67.4703L68.8563 42.8295H68.9823L70.9713 47.6175L72.9513 42.8295H73.0773L74.5263 49.2285ZM80.317 43.7565H77.716V45.6105H79.723V46.4295H77.716V48.4005H80.317V49.2285H76.861V42.9285H80.317V43.7565ZM85.9746 49.2285L84.5886 46.8075H83.7966V49.2285H82.9416V42.9285H84.6516C85.9386 42.9285 86.6946 43.8735 86.6946 44.8725C86.6946 45.6915 86.2356 46.4115 85.4166 46.6905L86.9466 49.2285H85.9746ZM83.7966 43.7655V45.9795H84.6156C85.3356 45.9795 85.8306 45.5205 85.8306 44.8725C85.8306 44.2155 85.3356 43.7655 84.6156 43.7655H83.7966ZM95.4577 49.3185C94.6027 49.3185 93.8467 48.8415 93.4417 48.2205L94.0627 47.6355C94.4137 48.1395 94.9447 48.4905 95.5117 48.4905C96.1417 48.4905 96.5557 48.1035 96.5557 47.5995C96.5557 46.0875 93.6127 46.5195 93.6127 44.4585C93.6217 43.5495 94.3867 42.8385 95.4397 42.8385C96.2407 42.8385 96.8797 43.2705 97.2667 43.7385L96.7087 44.3145C96.4027 43.9725 95.9527 43.6575 95.4577 43.6575C94.8817 43.6575 94.4857 43.9995 94.4857 44.4675C94.4767 45.8355 97.4467 45.4845 97.4197 47.6085C97.4107 48.5535 96.6817 49.3185 95.4577 49.3185ZM102.022 49.3275C100.654 49.3275 99.8352 48.4365 99.8352 47.1045V42.9285H100.69V47.0055C100.69 47.9865 101.221 48.4995 102.022 48.4995C102.832 48.4995 103.354 47.9865 103.354 47.0055V42.9285H104.209V47.1045C104.209 48.4365 103.39 49.3275 102.022 49.3275ZM108.54 42.9285C109.926 42.9285 110.682 43.9365 110.682 44.9265C110.682 46.0335 109.926 46.9245 108.54 46.9245H107.847V49.2285H106.992V42.9285H108.54ZM108.504 46.0875C109.296 46.0875 109.809 45.6375 109.809 44.9265C109.809 44.2695 109.296 43.7655 108.504 43.7655H107.847V46.0875H108.504ZM114.559 42.9285C115.945 42.9285 116.701 43.9365 116.701 44.9265C116.701 46.0335 115.945 46.9245 114.559 46.9245H113.866V49.2285H113.011V42.9285H114.559ZM114.523 46.0875C115.315 46.0875 115.828 45.6375 115.828 44.9265C115.828 44.2695 115.315 43.7655 114.523 43.7655H113.866V46.0875H114.523ZM122.045 49.3455C120.083 49.3455 118.805 47.8335 118.805 46.0785C118.805 44.3325 120.083 42.8205 122.045 42.8205C123.998 42.8205 125.276 44.3325 125.276 46.0785C125.276 47.8335 123.998 49.3455 122.045 49.3455ZM122.045 48.4995C123.458 48.4995 124.421 47.3655 124.421 46.0785C124.421 44.7915 123.458 43.6665 122.045 43.6665C120.623 43.6665 119.678 44.7915 119.678 46.0785C119.678 47.3655 120.623 48.4995 122.045 48.4995ZM131.026 49.2285L129.64 46.8075H128.848V49.2285H127.993V42.9285H129.703C130.99 42.9285 131.746 43.8735 131.746 44.8725C131.746 45.6915 131.287 46.4115 130.468 46.6905L131.998 49.2285H131.026ZM128.848 43.7655V45.9795H129.667C130.387 45.9795 130.882 45.5205 130.882 44.8725C130.882 44.2155 130.387 43.7655 129.667 43.7655H128.848ZM137.695 42.9285V43.7655H136.138V49.2285H135.283V43.7655H133.69V42.9285H137.695ZM140.599 42.9285L140.077 45.3045H139.42L139.726 42.9285H140.599ZM141.751 42.9285L141.229 45.3045H140.572L140.878 42.9285H141.751Z" fill="#FF492C"/>
</svg>
