<svg width="171" height="40" viewBox="0 0 171 40" fill="none" xmlns="http://www.w3.org/2000/svg">
<path d="M9.09857 1.59135L9.09916 1.53933C13.3097 0.476517 17.1117 -0.0359408 20.505 0.00195728C24.3182 0.0445438 27.5114 0.756515 30.0847 2.13787C33.3891 3.83953 35.0223 6.35491 34.9844 9.68401C34.9421 13.3946 32.7468 17.2198 28.3985 21.1597C25.0054 24.1739 20.8458 26.902 15.9197 29.3441C19.6066 25.1194 21.4759 20.7356 21.5276 16.1928C21.5715 12.3435 20.4194 9.05313 18.0714 6.32167C15.7572 3.69464 12.7662 2.11786 9.09857 1.59135Z" fill="url(#paint0_linear_220_173)"/>
<path d="M10.3774 22.7282V22.6763C10.3774 24.7164 10.5335 27.621 10.8458 31.39C11.158 35.3665 11.3315 38.2365 11.3662 40C9.3539 39.6542 8.0355 39.3776 7.41099 39.1701C5.98849 38.7552 4.82621 38.0982 3.92414 37.1992C3.85475 36.9917 3.82006 35.8506 3.82006 33.7759V29.5228C3.82006 20.7745 4.2364 15.3457 5.06908 13.2364C5.10377 13.1327 5.31194 12.7869 5.69359 12.1991C7.35894 9.64028 9.3539 8.10155 11.6785 7.58287C10.8111 13.1846 10.3774 18.233 10.3774 22.7282Z" fill="url(#paint1_linear_220_173)"/>
<path d="M34.694 39.4597H34.6416C27.7584 39.4597 21.05 36.5777 14.5162 30.8136C14.6909 30.6053 15.1801 30.3101 15.9837 29.9281C19.268 28.435 22.2554 26.7857 24.9458 24.9801C28.9638 30.7094 32.9819 35.4665 37 39.2514C35.9518 39.3903 35.1831 39.4597 34.694 39.4597Z" fill="url(#paint2_linear_220_173)"/>
<path d="M11.3685 24.0335C11.5781 22.7175 11.8051 13.2794 12.0496 11.9634C12.294 10.3704 12.4163 9.03712 12.4163 7.96356V7.02853C10.3556 7.02853 8.94985 7.69093 6.82153 9.20373C5.2068 10.3515 4.42035 11.4729 3.87463 13.3099C3.34747 15.0844 3.93575 15.7746 3.65634 17.9564C2.22437 15.0127 0 12.2058 0 9.67779C0 5.00263 2.51469 2.64773 7.54407 2.6131C10.6176 2.57847 13.4291 3.60008 15.9788 5.67793C16.9567 6.47443 17.5854 7.08047 17.8648 7.49605C17.3758 8.53497 17.1313 9.60853 17.1313 10.7167C17.1313 12.3097 17.533 22.2846 18.3363 24.3971L14.9091 28.8701L11.3685 24.0335Z" fill="url(#paint3_linear_220_173)"/>
<path d="M57.4184 28.7146H54.1919L49.6893 22.3549H47.6352V28.7146H45.0104L45 12.2854H50.1977C53.3101 12.2854 55.8622 14.6397 55.8622 17.5648C55.8622 19.6847 54.472 21.5294 52.5527 22.1409L57.4184 28.7146ZM47.6248 20.2146H50.2599C51.8369 20.2248 53.1545 18.9712 53.1545 17.5036C53.1545 15.9748 51.8161 14.8435 50.2599 14.8435H47.6248V20.2146Z" fill="url(#paint4_linear_220_173)"/>
<path d="M69.1522 14.8232H61.8173V19.0324H68.1458V21.6007H61.8173V26.1463H69.1522V28.7146H59.1925V12.2854H69.1522V14.8232Z" fill="url(#paint5_linear_220_173)"/>
<path d="M79.7654 28.9796C75.0242 28.9796 71.0922 25.1475 71.0922 20.5102C71.0922 15.8831 75.0242 12 79.7239 12C81.8922 12.0306 83.8945 12.9377 85.5337 14.5072L84.0086 16.5354C82.8363 15.3837 81.3112 14.6193 79.672 14.6193C76.6427 14.6193 73.7481 17.2284 73.7481 20.5204C73.7481 23.8327 76.6842 26.3909 79.6824 26.3909C81.3942 26.3909 82.8674 25.5552 84.019 24.4341L85.5337 26.5132C84.0916 27.9095 82.2553 28.9796 79.7654 28.9796Z" fill="url(#paint6_linear_220_173)"/>
<path d="M94.7256 28.9796C89.9741 28.9796 86.094 25.1679 86.094 20.5204C86.094 15.8321 89.9741 12 94.736 12C99.4876 12 103.388 15.8321 103.388 20.5204C103.388 25.1679 99.4876 28.9796 94.7256 28.9796ZM94.7256 26.3705C98.0248 26.3705 100.733 23.7308 100.733 20.5C100.733 17.2488 98.0248 14.5989 94.7256 14.5989C91.4265 14.5989 88.7395 17.2488 88.7395 20.5C88.7395 23.7308 91.4265 26.3705 94.7256 26.3705Z" fill="url(#paint7_linear_220_173)"/>
<path d="M121.606 19.7458C121.648 20.1229 121.679 20.5714 121.679 21.03C121.679 25.9119 118.069 28.9898 113.722 28.9898C108.856 28.9898 104.997 25.1781 104.997 20.5204C104.997 15.8525 108.877 12.0102 113.628 12.0102C115.734 12.0204 118.141 13.0192 119.718 14.5276L118.255 16.6679C116.948 15.4041 115.184 14.6091 113.597 14.6091C110.547 14.6091 107.663 17.1163 107.663 20.5204C107.663 23.741 110.267 26.3909 113.836 26.3909C116.71 26.3909 118.867 24.6685 118.867 22.1613V22.1103H113.69V19.7458H121.606Z" fill="url(#paint8_linear_220_173)"/>
<path d="M134.907 12.2446H137.542V29H137.417L126.721 18.0234V28.735H124.096V12H124.231L134.907 22.9562V12.2446Z" fill="url(#paint9_linear_220_173)"/>
<path d="M140.758 28.7146V12.2854H143.383V28.7146H140.758Z" fill="url(#paint10_linear_220_173)"/>
<path d="M156.569 14.813H149.234V19.2056H155.563V21.774H149.234V28.735H146.609V12.2446H156.569V14.813Z" fill="url(#paint11_linear_220_173)"/>
<path d="M162.846 28.7146V21.6924L157.295 12.2854H160.252L164.142 18.8285L168.043 12.2854H171L165.45 21.6924V28.7146H162.846Z" fill="url(#paint12_linear_220_173)"/>
<defs>
<linearGradient id="paint0_linear_220_173" x1="-13.3798" y1="28.177" x2="37.6727" y2="28.177" gradientUnits="userSpaceOnUse">
<stop stop-color="#AA076B"/>
<stop offset="1" stop-color="#61045F"/>
</linearGradient>
<linearGradient id="paint1_linear_220_173" x1="-13.7217" y1="14.5279" x2="153.636" y2="14.5279" gradientUnits="userSpaceOnUse">
<stop stop-color="#AA076B"/>
<stop offset="1" stop-color="#61045F"/>
</linearGradient>
<linearGradient id="paint2_linear_220_173" x1="-21.9067" y1="-16.6903" x2="37.0001" y2="-16.6903" gradientUnits="userSpaceOnUse">
<stop stop-color="#AA076B"/>
<stop offset="1" stop-color="#61045F"/>
</linearGradient>
<linearGradient id="paint3_linear_220_173" x1="0" y1="27.0647" x2="72.2029" y2="27.0647" gradientUnits="userSpaceOnUse">
<stop stop-color="#AA076B"/>
<stop offset="1" stop-color="#61045F"/>
</linearGradient>
<linearGradient id="paint4_linear_220_173" x1="-0.563775" y1="23.9752" x2="173.291" y2="23.9752" gradientUnits="userSpaceOnUse">
<stop stop-color="#AA076B"/>
<stop offset="1" stop-color="#61045F"/>
</linearGradient>
<linearGradient id="paint5_linear_220_173" x1="-0.563775" y1="23.9752" x2="173.291" y2="23.9752" gradientUnits="userSpaceOnUse">
<stop stop-color="#AA076B"/>
<stop offset="1" stop-color="#61045F"/>
</linearGradient>
<linearGradient id="paint6_linear_220_173" x1="-0.563775" y1="23.9752" x2="173.291" y2="23.9752" gradientUnits="userSpaceOnUse">
<stop stop-color="#AA076B"/>
<stop offset="1" stop-color="#61045F"/>
</linearGradient>
<linearGradient id="paint7_linear_220_173" x1="-0.563775" y1="23.9752" x2="173.291" y2="23.9752" gradientUnits="userSpaceOnUse">
<stop stop-color="#AA076B"/>
<stop offset="1" stop-color="#61045F"/>
</linearGradient>
<linearGradient id="paint8_linear_220_173" x1="-0.563775" y1="23.9752" x2="173.291" y2="23.9752" gradientUnits="userSpaceOnUse">
<stop stop-color="#AA076B"/>
<stop offset="1" stop-color="#61045F"/>
</linearGradient>
<linearGradient id="paint9_linear_220_173" x1="-0.563775" y1="23.9752" x2="173.291" y2="23.9752" gradientUnits="userSpaceOnUse">
<stop stop-color="#AA076B"/>
<stop offset="1" stop-color="#61045F"/>
</linearGradient>
<linearGradient id="paint10_linear_220_173" x1="-0.563775" y1="23.9752" x2="173.291" y2="23.9752" gradientUnits="userSpaceOnUse">
<stop stop-color="#AA076B"/>
<stop offset="1" stop-color="#61045F"/>
</linearGradient>
<linearGradient id="paint11_linear_220_173" x1="-0.563775" y1="23.9752" x2="173.291" y2="23.9752" gradientUnits="userSpaceOnUse">
<stop stop-color="#AA076B"/>
<stop offset="1" stop-color="#61045F"/>
</linearGradient>
<linearGradient id="paint12_linear_220_173" x1="-0.563775" y1="23.9752" x2="173.291" y2="23.9752" gradientUnits="userSpaceOnUse">
<stop stop-color="#AA076B"/>
<stop offset="1" stop-color="#61045F"/>
</linearGradient>
</defs>
</svg>
