<svg width="68" height="60" viewBox="0 0 68 60" fill="none" xmlns="http://www.w3.org/2000/svg">
<path d="M61.7409 0H31.8659C28.4085 0 25.6064 2.80261 25.6064 6.25932V20.9749C27.1857 21.7599 28.8922 22.6087 30.4848 23.4004L32.9216 18.5248C34.3972 15.5764 37.9939 14.3784 40.9412 15.8513C43.8947 17.3295 45.0916 20.9164 43.613 23.8705L39.2691 32.5604C39.3855 33.7137 39.2798 34.8787 38.9578 35.9922H41.8258L34.2617 56.792C33.8128 58.0255 34.6803 59.4652 36.1345 59.4652C36.9474 59.4652 37.7123 58.9636 38.0058 58.1531L46.0649 35.9922H47.461L55.6019 58.1599C55.8981 58.9661 56.6608 59.4652 57.4732 59.4652C58.8319 59.4652 59.828 58.1081 59.3419 56.7866L51.7053 35.9922H61.741C65.1976 35.9922 68.0002 33.1896 68.0002 29.7329V6.25945C68.0002 2.80261 65.1976 0 61.7409 0ZM57.4723 27.4574H48.5339C47.4339 27.4574 46.5417 26.5652 46.5417 25.4652C46.5417 24.3643 47.4339 23.473 48.5339 23.473H57.4721C58.5732 23.473 59.4643 24.3643 59.4643 25.4652C59.4643 26.5652 58.5733 27.4574 57.4723 27.4574ZM57.4723 19.9883H48.5339C47.4339 19.9883 46.5417 19.0971 46.5417 17.9961C46.5417 16.8963 47.4339 16.0039 48.5339 16.0039H57.4721C58.5732 16.0039 59.4643 16.8963 59.4643 17.9961C59.4643 19.0971 58.5733 19.9883 57.4723 19.9883ZM57.4723 12.5202H36.1345C35.0335 12.5202 34.1423 11.6277 34.1423 10.528C34.1423 9.42836 35.0335 8.53586 36.1345 8.53586H57.4721C58.573 8.53586 59.4643 9.42809 59.4643 10.528C59.4643 11.628 58.5732 12.5202 57.4723 12.5202Z" fill="url(#paint0_linear_220_228)"/>
<path d="M35.0521 35.1377C35.4121 34.083 35.4095 32.9811 35.1055 31.9757L40.0497 22.0883C40.5415 21.1042 40.1431 19.9074 39.159 19.4155C38.1754 18.9231 36.9785 19.3221 36.4861 20.3064L32.2693 28.7389C29.7489 27.4838 25.9197 25.58 22.835 24.0458C19.9649 22.6186 17.9167 21.3387 14.4221 21.3387H12.6618C15.3829 21.3387 17.8114 20.0863 19.401 18.1262C20.614 16.6348 21.3392 14.7338 21.3392 12.6623C21.3392 7.86914 17.4545 3.98438 12.6608 3.98438C7.86914 3.98438 3.98438 7.86914 3.98438 12.6623C3.98438 14.9642 4.88086 17.056 6.34339 18.6084C7.92466 20.2898 10.1705 21.3387 12.6602 21.3392C9.32224 21.3392 6.05904 22.6917 3.71145 25.0455C1.31816 27.4326 0 30.6127 0 34.0005V40.4021C0 43.158 1.78938 45.5028 4.26766 46.3371V57.4725C4.26766 58.573 5.1595 59.4647 6.25985 59.4647H19.0627C20.1631 59.4647 21.0549 58.573 21.0549 57.4725V35.0891C22.9439 36.0334 25.4254 37.2738 27.4331 38.2782C28.8405 38.9817 30.4851 39.0449 31.9518 38.4483C33.4143 37.8465 34.5416 36.6487 35.0443 35.1612L35.0521 35.1377Z" fill="url(#paint1_linear_220_228)"/>
<defs>
<linearGradient id="paint0_linear_220_228" x1="25.6064" y1="40.2351" x2="108.335" y2="40.2351" gradientUnits="userSpaceOnUse">
<stop stop-color="#AA076B"/>
<stop offset="1" stop-color="#61045F"/>
</linearGradient>
<linearGradient id="paint1_linear_220_228" x1="0" y1="41.5233" x2="78.5654" y2="41.5233" gradientUnits="userSpaceOnUse">
<stop stop-color="#AA076B"/>
<stop offset="1" stop-color="#61045F"/>
</linearGradient>
</defs>
</svg>
