<svg width="76" height="77" viewBox="0 0 76 77" fill="none" xmlns="http://www.w3.org/2000/svg">
<g filter="url(#filter0_d_220_183)">
<path fill-rule="evenodd" clip-rule="evenodd" d="M64.82 23.4512C66.236 24.8312 67.6487 26.2065 69.058 27.5772C70.942 29.4052 72 31.7892 72 34.3212C71.9905 35.5852 71.7251 36.8343 71.2198 37.993C70.7145 39.1517 69.9798 40.1961 69.06 41.0632C67.6493 42.4352 66.2367 43.8118 64.822 45.1932C64.782 47.1105 64.732 49.0272 64.672 50.9432C64.492 56.2172 59.938 60.7632 54.65 60.9432C52.73 61.0032 50.81 61.0525 48.89 61.0912C47.5047 62.5045 46.128 63.9145 44.76 65.3212C43.8954 66.249 42.849 66.989 41.686 67.4949C40.523 68.0009 39.2683 68.262 38 68.262C36.7317 68.262 35.477 68.0009 34.314 67.4949C33.151 66.989 32.1046 66.249 31.24 65.3212C29.88 63.9132 28.5047 62.5038 27.114 61.0932C25.194 61.0532 23.2727 61.0032 21.35 60.9432C18.7314 60.8334 16.2528 59.7307 14.418 57.8592C12.516 55.9532 11.408 53.5112 11.328 50.9412C11.268 49.0225 11.218 47.1032 11.178 45.1832C9.76333 43.8018 8.35067 42.4292 6.94 41.0652C6.01919 40.1984 5.28385 39.1538 4.7785 37.9946C4.27315 36.8354 4.00831 35.5857 4 34.3212C4 31.7932 5.058 29.4092 6.94 27.5792C8.35067 26.2138 9.76333 24.8398 11.178 23.4572C11.218 21.5385 11.268 19.6212 11.328 17.7052C11.508 12.4272 16.06 7.88515 21.35 7.70515C23.27 7.64382 25.19 7.59449 27.11 7.55715C28.5033 6.14382 29.8813 4.73182 31.244 3.32115C32.1078 2.39291 33.1536 1.65259 34.3161 1.14637C35.4786 0.64016 36.733 0.378906 38.001 0.378906C39.269 0.378906 40.5233 0.64016 41.6859 1.14637C42.8484 1.65259 43.8942 2.39291 44.758 3.32115C46.1193 4.73049 47.4947 6.13915 48.884 7.54715C50.804 7.58715 52.7253 7.63715 54.648 7.69715C57.2661 7.80658 59.7442 8.90937 61.578 10.7812C63.482 12.6852 64.59 15.1332 64.67 17.6992C64.73 19.6178 64.78 21.5352 64.82 23.4512ZM37.6358 48.0934C43.3578 42.0574 49.1778 35.9714 54.9058 30.0194C56.8278 28.0234 56.7238 24.8654 54.6778 22.9294C52.6318 20.9934 49.4498 21.0334 47.5418 23.0334C43.0498 27.7534 38.4858 32.5394 33.9418 37.2994C32.1058 35.4127 30.2738 33.532 28.4458 31.6574C27.5048 30.7001 26.2236 30.1535 24.8813 30.1367C23.5391 30.1198 22.2446 30.6341 21.2798 31.5674C20.8007 32.022 20.4173 32.5678 20.1522 33.1727C19.8871 33.7777 19.7456 34.4295 19.7361 35.0899C19.7266 35.7503 19.8493 36.4059 20.0968 37.0183C20.3444 37.6306 20.712 38.1872 21.1778 38.6554C24.2398 41.7854 27.3198 44.9414 30.3778 48.0994C30.8473 48.5871 31.4096 48.976 32.0316 49.2432C32.6537 49.5104 33.3228 49.6506 33.9998 49.6554H34.0178C34.6953 49.6544 35.3656 49.5154 35.9876 49.2468C36.6096 48.9783 37.1704 48.5858 37.6358 48.0934Z" fill="url(#paint0_linear_220_183)"/>
</g>
<defs>
<filter id="filter0_d_220_183" x="0" y="0.378906" width="76" height="75.8828" filterUnits="userSpaceOnUse" color-interpolation-filters="sRGB">
<feFlood flood-opacity="0" result="BackgroundImageFix"/>
<feColorMatrix in="SourceAlpha" type="matrix" values="0 0 0 0 0 0 0 0 0 0 0 0 0 0 0 0 0 0 127 0" result="hardAlpha"/>
<feOffset dy="4"/>
<feGaussianBlur stdDeviation="2"/>
<feComposite in2="hardAlpha" operator="out"/>
<feColorMatrix type="matrix" values="0 0 0 0 0 0 0 0 0 0 0 0 0 0 0 0 0 0 0.06 0"/>
<feBlend mode="normal" in2="BackgroundImageFix" result="effect1_dropShadow_220_183"/>
<feBlend mode="normal" in="SourceGraphic" in2="effect1_dropShadow_220_183" result="shape"/>
</filter>
<linearGradient id="paint0_linear_220_183" x1="4" y1="46.3097" x2="136.697" y2="46.3097" gradientUnits="userSpaceOnUse">
<stop stop-color="#AA076B"/>
<stop offset="1" stop-color="#61045F"/>
</linearGradient>
</defs>
</svg>
