<svg width="76" height="79" viewBox="0 0 76 79" fill="none" xmlns="http://www.w3.org/2000/svg">
<g filter="url(#filter0_d_220_190)">
<path d="M37.9998 19.9361C43.4004 19.9361 47.7784 15.5581 47.7784 10.1575C47.7784 4.75693 43.4004 0.378906 37.9998 0.378906C32.5992 0.378906 28.2212 4.75693 28.2212 10.1575C28.2212 15.5581 32.5992 19.9361 37.9998 19.9361Z" fill="url(#paint0_linear_220_190)"/>
</g>
<g filter="url(#filter1_d_220_190)">
<path d="M20.9437 41.8309H55.0563C55.3879 41.8309 55.706 41.6992 55.9405 41.4647C56.175 41.2301 56.3067 40.9121 56.3067 40.5805V31.0269C56.2948 29.7854 56.023 28.56 55.5088 27.4299C54.9945 26.2998 54.2492 25.2899 53.321 24.4652C52.3927 23.6406 51.302 23.0196 50.1191 22.6422C48.9363 22.2647 47.6874 22.1392 46.4531 22.2737C43.9679 23.9891 41.0197 24.9078 38 24.9078C34.9803 24.9078 32.0321 23.9891 29.5469 22.2737H28.4465C26.125 22.2737 23.8986 23.1959 22.257 24.8375C20.6155 26.479 19.6933 28.7054 19.6933 31.0269V40.5805C19.6933 40.9121 19.825 41.2301 20.0595 41.4647C20.294 41.6992 20.6121 41.8309 20.9437 41.8309ZM25.658 58.2244L21.4314 57.8993L19.7558 55.3984C19.7558 55.3984 19.6808 55.3109 19.6558 55.2608L18.7804 53.9354C18.6665 53.7625 18.5115 53.6207 18.3293 53.5225C18.147 53.4244 17.9433 53.373 17.7363 53.373C17.5293 53.373 17.3256 53.4244 17.1433 53.5225C16.9611 53.6207 16.8061 53.7625 16.6922 53.9354L14.0412 57.8993L9.81464 58.2244C9.58074 58.2399 9.35589 58.3208 9.16574 58.4578C8.9756 58.5949 8.82781 58.7827 8.73924 58.9997C8.66327 59.2103 8.64524 59.4375 8.68703 59.6574C8.72882 59.8774 8.82891 60.0821 8.97683 60.2502L12.253 63.839L10.9401 68.7658C10.8787 69.0001 10.8866 69.2472 10.963 69.477C11.0394 69.7068 11.1808 69.9096 11.3702 70.0605C11.5596 70.2115 11.7887 70.3042 12.0298 70.3275C12.2709 70.3507 12.5135 70.3034 12.7282 70.1913L17.73 67.5279L22.7319 70.1913C22.9469 70.3072 23.1912 70.3575 23.4345 70.3361C23.6779 70.3147 23.9096 70.2225 24.1011 70.0709C24.2927 69.9193 24.4356 69.7149 24.5122 69.4829C24.5889 69.251 24.596 69.0017 24.5325 68.7658L23.2821 63.839C23.9448 63.1012 25.9081 60.9254 26.5458 60.2502C26.6875 60.0721 26.7779 59.8588 26.8073 59.6331C26.8367 59.4075 26.8039 59.1781 26.7126 58.9697C26.6212 58.7612 26.4748 58.5817 26.2889 58.4504C26.1031 58.3191 25.8849 58.2409 25.658 58.2244ZM10.1523 55.2108C10.3757 55.2113 10.5952 55.1519 10.7878 55.0387C10.9805 54.9256 11.1394 54.763 11.2479 54.5676C11.3564 54.3723 11.4106 54.1515 11.4048 53.9282C11.3991 53.7048 11.3336 53.4871 11.2152 53.2976C1.17396 37.892 7.98897 15.4962 24.8952 8.16853C25.197 8.02924 25.4311 7.77577 25.546 7.46388C25.6609 7.15198 25.6472 6.80722 25.5079 6.50542C25.3686 6.20363 25.1151 5.96953 24.8032 5.85462C24.4914 5.73971 24.1466 5.75341 23.8448 5.8927C17.9327 8.61163 12.9224 12.966 9.40584 18.4414C5.8893 23.9167 4.01347 30.2842 4 36.7916C3.99892 43.0939 5.76188 49.2708 9.08937 54.6231C9.202 54.8033 9.3587 54.9519 9.54467 55.0547C9.73064 55.1575 9.93975 55.2113 10.1523 55.2108ZM51.1048 8.16853C68.011 15.4962 74.826 37.892 64.7848 53.2976C64.6091 53.5795 64.5525 53.9197 64.6275 54.2433C64.7026 54.5669 64.9031 54.8475 65.185 55.0233C65.4669 55.199 65.8071 55.2556 66.1307 55.1806C66.4543 55.1055 66.7349 54.905 66.9106 54.6231C70.2381 49.2708 72.0011 43.0939 72 36.7916C71.9865 30.2842 70.1107 23.9167 66.5942 18.4414C63.0776 12.966 58.0673 8.61163 52.1552 5.8927C51.8534 5.75341 51.5086 5.73971 51.1967 5.85462C50.8848 5.96953 50.6314 6.20363 50.4921 6.50542C50.3528 6.80722 50.3391 7.15198 50.454 7.46388C50.5689 7.77577 50.803 8.02924 51.1048 8.16853ZM46.303 62.8136L44.7775 57.0615L49.2541 52.1722C49.412 51.9985 49.5178 51.7838 49.5593 51.5527C49.6009 51.3217 49.5766 51.0836 49.4892 50.8657C49.4018 50.6478 49.2548 50.459 49.0651 50.3207C48.8753 50.1825 48.6505 50.1004 48.4163 50.0839L42.6642 49.6463L39.0879 44.2818C38.9735 44.1116 38.819 43.9721 38.638 43.8757C38.457 43.7793 38.2551 43.7288 38.05 43.7288C37.8449 43.7288 37.643 43.7793 37.462 43.8757C37.281 43.9721 37.1265 44.1116 37.0121 44.2818L33.3858 49.6463L27.6337 50.0839C27.3953 50.0916 27.164 50.1672 26.9672 50.302C26.7703 50.4367 26.6161 50.625 26.5228 50.8445C26.4295 51.064 26.4009 51.3057 26.4404 51.5409C26.4799 51.7762 26.5859 51.9952 26.7459 52.1722L31.1725 57.0615L29.6469 62.8136L29.3968 63.739C29.3506 63.915 29.3434 64.0991 29.3757 64.2782C29.408 64.4574 29.4791 64.6273 29.5839 64.7762C29.6886 64.925 29.8247 65.0492 29.9824 65.14C30.1402 65.2309 30.3159 65.2862 30.4972 65.302C31.0725 65.4646 32.0978 64.6643 32.5855 64.4767L38 61.5632L44.7525 65.1645C44.9675 65.2803 45.2118 65.3307 45.4551 65.3093C45.6985 65.2879 45.9302 65.1957 46.1217 65.044C46.3132 64.8924 46.4562 64.688 46.5328 64.4561C46.6095 64.2242 46.6166 63.9749 46.5531 63.739L46.303 62.8136Z" fill="url(#paint1_linear_220_190)"/>
</g>
<g filter="url(#filter2_d_220_190)">
<path d="M61.7591 51.3366C61.9795 51.3374 62.1961 51.2801 62.3872 51.1703C62.5782 51.0605 62.7368 50.9022 62.847 50.7113C65.2402 46.4637 66.4937 41.6691 66.4858 36.7937C66.4774 31.7866 65.1567 26.8692 62.6555 22.5316C60.1543 18.194 56.5599 14.5877 52.2306 12.0721C51.9448 11.9226 51.6123 11.8893 51.3026 11.9792C50.9928 12.0691 50.7298 12.2751 50.5684 12.5544C50.407 12.8336 50.3597 13.1644 50.4364 13.4776C50.5132 13.7909 50.708 14.0624 50.9801 14.2354C63.0846 20.9629 67.6863 37.544 60.6712 49.4734C60.5643 49.6635 60.5091 49.8783 60.5108 50.0964C60.5126 50.3145 60.5714 50.5283 60.6814 50.7166C60.7914 50.905 60.9487 51.0613 61.1377 51.17C61.3268 51.2788 61.541 51.3362 61.7591 51.3366ZM24.9706 14.2354C25.2428 14.0624 25.4376 13.7909 25.5143 13.4776C25.591 13.1644 25.5438 12.8336 25.3824 12.5544C25.2209 12.2751 24.9579 12.0691 24.6481 11.9792C24.3384 11.8893 24.0059 11.9226 23.7201 12.0721C19.3908 14.5877 15.7964 18.194 13.2952 22.5316C10.794 26.8692 9.47336 31.7866 9.46488 36.7937C9.457 41.6691 10.7106 46.4637 13.1037 50.7113C13.2695 50.9999 13.5432 51.2107 13.8645 51.2975C14.1857 51.3842 14.5283 51.3398 14.8168 51.174C15.1054 51.0082 15.3162 50.7345 15.403 50.4133C15.4898 50.092 15.4453 49.7494 15.2795 49.4609C8.26444 37.544 12.8661 20.9629 24.9706 14.2354ZM66.1857 58.2266L61.9967 57.9015L59.2582 53.925C59.1443 53.7522 58.9893 53.6103 58.807 53.5122C58.6248 53.414 58.421 53.3626 58.2141 53.3626C58.0071 53.3626 57.8033 53.414 57.6211 53.5122C57.4388 53.6103 57.2838 53.7522 57.1699 53.925L56.2446 55.313C56.2055 55.359 56.1719 55.4093 56.1445 55.4631L54.569 57.9015L50.3424 58.2266C50.1085 58.242 49.8837 58.3229 49.6935 58.46C49.5034 58.5971 49.3556 58.7849 49.267 59.0019C48.8043 59.9147 50.0048 60.7775 50.5175 61.3903L52.7933 63.8912C52.5557 64.804 51.7429 67.8426 51.4803 68.818C51.4169 69.0539 51.424 69.3032 51.5006 69.5351C51.5773 69.7671 51.7202 69.9715 51.9117 70.1231C52.1033 70.2747 52.335 70.3669 52.5783 70.3883C52.8217 70.4097 53.0659 70.3594 53.281 70.2435L58.2828 67.58L63.2847 70.2435C63.4994 70.3556 63.742 70.4029 63.9831 70.3796C64.2242 70.3564 64.4533 70.2637 64.6427 70.1127C64.8321 69.9618 64.9735 69.759 65.0499 69.5292C65.1262 69.2994 65.1342 69.0523 65.0728 68.818L63.8224 63.8912L67.0986 60.3024C67.2559 60.1234 67.3588 59.9033 67.3952 59.6679C67.4316 59.4324 67.4 59.1915 67.3041 58.9734C67.2082 58.7553 67.0519 58.5692 66.8538 58.4369C66.6557 58.3046 66.4239 58.2316 66.1857 58.2266Z" fill="url(#paint2_linear_220_190)"/>
</g>
<defs>
<filter id="filter0_d_220_190" x="24.2212" y="0.378906" width="27.5571" height="27.5566" filterUnits="userSpaceOnUse" color-interpolation-filters="sRGB">
<feFlood flood-opacity="0" result="BackgroundImageFix"/>
<feColorMatrix in="SourceAlpha" type="matrix" values="0 0 0 0 0 0 0 0 0 0 0 0 0 0 0 0 0 0 127 0" result="hardAlpha"/>
<feOffset dy="4"/>
<feGaussianBlur stdDeviation="2"/>
<feComposite in2="hardAlpha" operator="out"/>
<feColorMatrix type="matrix" values="0 0 0 0 0 0 0 0 0 0 0 0 0 0 0 0 0 0 0.05 0"/>
<feBlend mode="normal" in2="BackgroundImageFix" result="effect1_dropShadow_220_190"/>
<feBlend mode="normal" in="SourceGraphic" in2="effect1_dropShadow_220_190" result="shape"/>
</filter>
<filter id="filter1_d_220_190" x="0" y="5.77734" width="76" height="72.5645" filterUnits="userSpaceOnUse" color-interpolation-filters="sRGB">
<feFlood flood-opacity="0" result="BackgroundImageFix"/>
<feColorMatrix in="SourceAlpha" type="matrix" values="0 0 0 0 0 0 0 0 0 0 0 0 0 0 0 0 0 0 127 0" result="hardAlpha"/>
<feOffset dy="4"/>
<feGaussianBlur stdDeviation="2"/>
<feComposite in2="hardAlpha" operator="out"/>
<feColorMatrix type="matrix" values="0 0 0 0 0 0 0 0 0 0 0 0 0 0 0 0 0 0 0.05 0"/>
<feBlend mode="normal" in2="BackgroundImageFix" result="effect1_dropShadow_220_190"/>
<feBlend mode="normal" in="SourceGraphic" in2="effect1_dropShadow_220_190" result="shape"/>
</filter>
<filter id="filter2_d_220_190" x="5.46484" y="11.9297" width="65.9448" height="66.4629" filterUnits="userSpaceOnUse" color-interpolation-filters="sRGB">
<feFlood flood-opacity="0" result="BackgroundImageFix"/>
<feColorMatrix in="SourceAlpha" type="matrix" values="0 0 0 0 0 0 0 0 0 0 0 0 0 0 0 0 0 0 127 0" result="hardAlpha"/>
<feOffset dy="4"/>
<feGaussianBlur stdDeviation="2"/>
<feComposite in2="hardAlpha" operator="out"/>
<feColorMatrix type="matrix" values="0 0 0 0 0 0 0 0 0 0 0 0 0 0 0 0 0 0 0.05 0"/>
<feBlend mode="normal" in2="BackgroundImageFix" result="effect1_dropShadow_220_190"/>
<feBlend mode="normal" in="SourceGraphic" in2="effect1_dropShadow_220_190" result="shape"/>
</filter>
<linearGradient id="paint0_linear_220_190" x1="28.2212" y1="13.6116" x2="66.3857" y2="13.6116" gradientUnits="userSpaceOnUse">
<stop stop-color="#AA076B"/>
<stop offset="1" stop-color="#61045F"/>
</linearGradient>
<linearGradient id="paint1_linear_220_190" x1="4" y1="49.4621" x2="136.697" y2="49.4621" gradientUnits="userSpaceOnUse">
<stop stop-color="#AA076B"/>
<stop offset="1" stop-color="#61045F"/>
</linearGradient>
<linearGradient id="paint2_linear_220_190" x1="9.46484" y1="51.487" x2="122.54" y2="51.487" gradientUnits="userSpaceOnUse">
<stop stop-color="#AA076B"/>
<stop offset="1" stop-color="#61045F"/>
</linearGradient>
</defs>
</svg>
