<svg width="30" height="32" viewBox="0 0 30 32" fill="none" xmlns="http://www.w3.org/2000/svg">
<path d="M7.875 8.5H22.125V5.5C22.125 2.5 21 1 17.625 1H12.375C9 1 7.875 2.5 7.875 5.5V8.5Z" stroke="#B8C0CC" stroke-width="1.8" stroke-linecap="round" stroke-linejoin="round"/>
<path d="M21 20.5V26.5C21 29.5 19.5 31 16.5 31H13.5C10.5 31 9 29.5 9 26.5V20.5H21Z" stroke="#B8C0CC" stroke-width="1.8" stroke-linecap="round" stroke-linejoin="round"/>
<path d="M28.5 13V20.5C28.5 23.5 27 25 24 25H21V20.5H9V25H6C3 25 1.5 23.5 1.5 20.5V13C1.5 10 3 8.5 6 8.5H24C27 8.5 28.5 10 28.5 13Z" stroke="#B8C0CC" stroke-width="1.8" stroke-linecap="round" stroke-linejoin="round"/>
<path d="M22.5 20.5H20.685H7.5" stroke="#B8C0CC" stroke-width="1.8" stroke-linecap="round" stroke-linejoin="round"/>
<path d="M7.5 14.5H12" stroke="#B8C0CC" stroke-width="1.8" stroke-linecap="round" stroke-linejoin="round"/>
</svg>
