<svg width="20" height="28" viewBox="0 0 20 28" fill="none" xmlns="http://www.w3.org/2000/svg">
<path fill-rule="evenodd" clip-rule="evenodd" d="M9.99984 3.33268C6.31794 3.33268 3.33317 6.31745 3.33317 9.99935C3.33317 13.7165 5.4821 19.1558 9.99984 24.0731C14.5176 19.1558 16.6665 13.7165 16.6665 9.99935C16.6665 6.31745 13.6817 3.33268 9.99984 3.33268ZM0.666504 9.99935C0.666504 4.84469 4.84518 0.666016 9.99984 0.666016C15.1545 0.666016 19.3332 4.84469 19.3332 9.99935C19.3332 14.8689 16.4472 21.4376 10.9426 26.9422C10.4219 27.4629 9.57773 27.4629 9.05703 26.9422C3.55243 21.4376 0.666504 14.8689 0.666504 9.99935Z" fill="#B8C0CC"/>
<path fill-rule="evenodd" clip-rule="evenodd" d="M9.99984 11.3327C10.7362 11.3327 11.3332 10.7357 11.3332 9.99935C11.3332 9.26297 10.7362 8.66602 9.99984 8.66602C9.26346 8.66602 8.6665 9.26297 8.6665 9.99935C8.6665 10.7357 9.26346 11.3327 9.99984 11.3327ZM9.99984 13.9993C12.209 13.9993 13.9998 12.2085 13.9998 9.99935C13.9998 7.79021 12.209 5.99935 9.99984 5.99935C7.7907 5.99935 5.99984 7.79021 5.99984 9.99935C5.99984 12.2085 7.7907 13.9993 9.99984 13.9993Z" fill="#B8C0CC"/>
</svg>
