<svg width="28" height="22" viewBox="0 0 28 22" fill="none" xmlns="http://www.w3.org/2000/svg">
<path fill-rule="evenodd" clip-rule="evenodd" d="M4.6665 0.333984C2.45737 0.333984 0.666504 2.12485 0.666504 4.33398V17.6673C0.666504 19.8765 2.45736 21.6673 4.6665 21.6673H23.3332C25.5423 21.6673 27.3332 19.8765 27.3332 17.6673V4.33398C27.3332 2.12485 25.5423 0.333984 23.3332 0.333984H4.6665ZM4.43386 3.02088C4.5094 3.00758 4.58714 3.00065 4.6665 3.00065H23.3332C23.4125 3.00065 23.4903 3.00759 23.5658 3.02088L13.9999 9.39821L4.43386 3.02088ZM3.33317 5.49202V17.6673C3.33317 18.4037 3.93012 19.0007 4.6665 19.0007H23.3332C24.0695 19.0007 24.6665 18.4037 24.6665 17.6673V5.49204L14.7395 12.1101C14.2916 12.4087 13.7081 12.4087 13.2603 12.1101L3.33317 5.49202Z" fill="#B8C0CC"/>
</svg>
