<svg width="24" height="24" viewBox="0 0 24 24" fill="none" xmlns="http://www.w3.org/2000/svg">
<path fill-rule="evenodd" clip-rule="evenodd" d="M1.97942 1.71991C1.59787 2.10188 1.24802 2.57042 1.02182 2.97841C0.73771 3.47707 0.527973 4.02389 0.401523 4.59241L0.335719 4.93592C-0.701292 10.1972 0.615703 14.9038 4.96325 19.2204C7.81578 22.0526 9.97883 23.2164 12.9406 23.6413C13.4205 23.7102 13.9218 23.7619 14.5183 23.8061L15.7446 23.8806C16.429 23.916 17.5693 23.9728 17.9586 23.995C18.4713 24.0242 19.1496 23.9261 20.0612 23.7126L20.1993 23.6721C20.9951 23.391 21.7217 22.9349 22.3301 22.3258C24.5566 20.0969 24.5566 16.4831 22.3301 14.2542L22.1318 14.0648C19.9795 12.1049 16.6882 12.087 14.5158 14.0207L14.2582 14.2538L12.8817 15.6318C12.5801 15.9337 12.1051 15.9746 11.7564 15.7287C11.0309 15.217 9.10323 13.3304 8.63268 12.6874C8.37689 12.3378 8.41403 11.8537 8.72014 11.5474L9.93288 10.3341L10.0366 10.2497L10.1906 10.107C10.2184 10.0802 10.2467 10.0524 10.2748 10.0244C12.5655 7.73115 12.5655 4.01312 10.2748 1.71991C7.98407 -0.573303 4.27012 -0.573303 1.97942 1.71991ZM3.84006 3.58259C5.10315 2.31811 7.15103 2.31811 8.41413 3.58259C9.67722 4.84707 9.67722 6.8972 8.41413 8.16168C8.33598 8.23991 8.25458 8.31362 8.17014 8.38272L6.85998 9.68427C5.63541 10.9097 5.48685 12.846 6.51003 14.2442C7.15038 15.1192 9.28346 17.2069 10.2409 17.8822L10.4256 18.004C11.7998 18.8498 13.5882 18.6499 14.7424 17.4944L16.0149 16.2201L16.0323 16.2113L16.1549 16.0913C17.3559 14.9159 19.2803 14.9263 20.4695 16.1169C21.6684 17.3171 21.6684 19.2629 20.4695 20.4631L20.265 20.6505C20.0536 20.8276 19.822 20.9735 19.5753 21.0863L19.3762 21.1664L19.0379 21.2409L18.6807 21.3078C18.412 21.3528 18.2173 21.3712 18.1082 21.365L15.4364 21.2262L14.7286 21.1802L14.1146 21.1285C13.8268 21.1007 13.5647 21.0697 13.3138 21.0337C10.9428 20.6936 9.2858 19.802 6.81621 17.35C3.2278 13.7872 2.11555 10.1017 2.84874 5.81688L2.92544 5.40033C2.99495 4.9737 3.12368 4.60608 3.3151 4.27002C3.43164 4.05999 3.63432 3.78856 3.84006 3.58259Z" fill="#B8C0CC"/>
</svg>
