<svg width="10" height="18" viewBox="0 0 10 18" fill="none" xmlns="http://www.w3.org/2000/svg">
<path d="M6.08203 18V9.77344H8.82422L9.24609 6.57422H6.08203V4.53516C6.08203 4.07812 6.17871 3.70605 6.37207 3.41895C6.56543 3.13184 6.99609 2.98828 7.66406 2.98828H9.35156V0.140625C9.21094 0.105469 8.91211 0.0732422 8.45508 0.0439453C7.99805 0.0146484 7.47656 0 6.89062 0C6.28125 0 5.71875 0.09375 5.20312 0.28125C4.69922 0.457031 4.26855 0.723633 3.91113 1.08105C3.55371 1.43848 3.27539 1.88086 3.07617 2.4082C2.87695 2.92383 2.77734 3.52734 2.77734 4.21875V6.57422H0V9.77344H2.77734V18H6.08203Z" fill="#6F7095" fill-opacity="0.5"/>
</svg>
