<svg width="19" height="18" viewBox="0 0 19 18" fill="none" xmlns="http://www.w3.org/2000/svg">
<path d="M9.35156 1.61719C10.5586 1.61719 11.3438 1.62305 11.707 1.63477C12.0703 1.64648 12.4922 1.66406 12.9727 1.6875C13.4297 1.69922 13.7842 1.73438 14.0361 1.79297C14.2881 1.85156 14.4961 1.91016 14.6602 1.96875C14.8711 2.05078 15.0586 2.14746 15.2227 2.25879C15.3867 2.37012 15.5391 2.49609 15.6797 2.63672C15.832 2.78906 15.9639 2.94727 16.0752 3.11133C16.1865 3.27539 16.2773 3.45703 16.3477 3.65625C16.418 3.83203 16.4824 4.0459 16.541 4.29785C16.5996 4.5498 16.6406 4.89844 16.6641 5.34375C16.6758 5.83594 16.6904 6.26367 16.708 6.62695C16.7256 6.99023 16.7344 7.78125 16.7344 9C16.7344 10.207 16.7285 10.9922 16.7168 11.3555C16.7051 11.7188 16.6875 12.1406 16.6641 12.6211C16.6523 13.0781 16.6172 13.4326 16.5586 13.6846C16.5 13.9365 16.4414 14.1445 16.3828 14.3086C16.3008 14.5195 16.2041 14.707 16.0928 14.8711C15.9814 15.0352 15.8555 15.1875 15.7148 15.3281C15.5625 15.4805 15.4043 15.6123 15.2402 15.7236C15.0762 15.835 14.8945 15.9258 14.6953 15.9961C14.5195 16.0664 14.3057 16.1309 14.0537 16.1895C13.8018 16.248 13.4531 16.2891 13.0078 16.3125C12.5156 16.3242 12.0879 16.3389 11.7246 16.3564C11.3613 16.374 10.5703 16.3828 9.35156 16.3828C8.14453 16.3828 7.35938 16.377 6.99609 16.3652C6.63281 16.3535 6.21094 16.3359 5.73047 16.3125C5.27344 16.3008 4.91895 16.2656 4.66699 16.207C4.41504 16.1484 4.20703 16.0898 4.04297 16.0312C3.83203 15.9492 3.64453 15.8525 3.48047 15.7412C3.31641 15.6299 3.16406 15.5039 3.02344 15.3633C2.87109 15.2109 2.73926 15.0527 2.62793 14.8887C2.5166 14.7246 2.42578 14.543 2.35547 14.3438C2.28516 14.168 2.2207 13.9541 2.16211 13.7021C2.10352 13.4502 2.0625 13.1016 2.03906 12.6562C2.02734 12.1641 2.0127 11.7363 1.99512 11.373C1.97754 11.0098 1.96875 10.2188 1.96875 9C1.96875 7.79297 1.97461 7.00781 1.98633 6.64453C1.99805 6.28125 2.01562 5.85938 2.03906 5.37891C2.05078 4.92188 2.08594 4.56738 2.14453 4.31543C2.20312 4.06348 2.26172 3.85547 2.32031 3.69141C2.40234 3.48047 2.49902 3.29297 2.61035 3.12891C2.72168 2.96484 2.84766 2.8125 2.98828 2.67188C3.14062 2.51953 3.29883 2.3877 3.46289 2.27637C3.62695 2.16504 3.80859 2.07422 4.00781 2.00391C4.18359 1.93359 4.39746 1.86914 4.64941 1.81055C4.90137 1.75195 5.25 1.71094 5.69531 1.6875C6.1875 1.67578 6.61523 1.66113 6.97852 1.64355C7.3418 1.62598 8.13281 1.61719 9.35156 1.61719ZM9.35156 0C8.12109 0 7.31836 0.00585938 6.94336 0.0175781C6.56836 0.0292969 6.14062 0.046875 5.66016 0.0703125C5.16797 0.0820312 4.74902 0.123047 4.40332 0.193359C4.05762 0.263672 3.75 0.351562 3.48047 0.457031C3.1875 0.574219 2.90625 0.717773 2.63672 0.887695C2.36719 1.05762 2.10938 1.26562 1.86328 1.51172C1.61719 1.75781 1.41211 2.0127 1.24805 2.27637C1.08398 2.54004 0.9375 2.82422 0.808594 3.12891C0.703125 3.41016 0.618164 3.7207 0.553711 4.06055C0.489258 4.40039 0.445312 4.81641 0.421875 5.30859C0.410156 5.77734 0.395508 6.20215 0.37793 6.58301C0.360352 6.96387 0.351562 7.76953 0.351562 9C0.351562 10.2305 0.357422 11.0332 0.369141 11.4082C0.380859 11.7832 0.398438 12.2109 0.421875 12.6914C0.433594 13.1836 0.474609 13.6025 0.544922 13.9482C0.615234 14.2939 0.703125 14.6016 0.808594 14.8711C0.925781 15.1641 1.06934 15.4453 1.23926 15.7148C1.40918 15.9844 1.61719 16.2422 1.86328 16.4883C2.10938 16.7344 2.36426 16.9395 2.62793 17.1035C2.8916 17.2676 3.17578 17.4141 3.48047 17.543C3.76172 17.6484 4.07227 17.7334 4.41211 17.7979C4.75195 17.8623 5.16797 17.9062 5.66016 17.9297C6.12891 17.9414 6.55371 17.9561 6.93457 17.9736C7.31543 17.9912 8.12109 18 9.35156 18C10.582 18 11.3848 17.9941 11.7598 17.9824C12.1348 17.9707 12.5625 17.9531 13.043 17.9297C13.5352 17.918 13.9541 17.877 14.2998 17.8066C14.6455 17.7363 14.9531 17.6484 15.2227 17.543C15.5156 17.4258 15.7969 17.2822 16.0664 17.1123C16.3359 16.9424 16.5938 16.7344 16.8398 16.4883C17.0859 16.2422 17.291 15.9873 17.4551 15.7236C17.6191 15.46 17.7656 15.1758 17.8945 14.8711C18 14.5898 18.085 14.2793 18.1494 13.9395C18.2139 13.5996 18.2578 13.1836 18.2812 12.6914C18.293 12.2227 18.3076 11.7979 18.3252 11.417C18.3428 11.0361 18.3516 10.2305 18.3516 9C18.3516 7.76953 18.3457 6.9668 18.334 6.5918C18.3223 6.2168 18.3047 5.78906 18.2812 5.30859C18.2695 4.81641 18.2285 4.39746 18.1582 4.05176C18.0879 3.70605 18 3.39844 17.8945 3.12891C17.7773 2.83594 17.6338 2.55469 17.4639 2.28516C17.2939 2.01562 17.0859 1.75781 16.8398 1.51172C16.5938 1.26562 16.3389 1.06055 16.0752 0.896484C15.8115 0.732422 15.5273 0.585938 15.2227 0.457031C14.9414 0.351562 14.6309 0.266602 14.291 0.202148C13.9512 0.137695 13.5352 0.09375 13.043 0.0703125C12.5742 0.0585938 12.1494 0.0439453 11.7686 0.0263672C11.3877 0.00878906 10.582 0 9.35156 0ZM9.35156 4.35938C8.70703 4.35938 8.10352 4.48242 7.54102 4.72852C6.97852 4.96289 6.48633 5.29102 6.06445 5.71289C5.64258 6.13477 5.31445 6.62695 5.08008 7.18945C4.83398 7.75195 4.71094 8.35547 4.71094 9C4.71094 9.64453 4.83398 10.248 5.08008 10.8105C5.31445 11.373 5.64258 11.8652 6.06445 12.2871C6.48633 12.709 6.97852 13.0371 7.54102 13.2715C8.10352 13.5176 8.70703 13.6406 9.35156 13.6406C9.99609 13.6406 10.5996 13.5176 11.1621 13.2715C11.7246 13.0371 12.2168 12.709 12.6387 12.2871C13.0605 11.8652 13.3887 11.373 13.623 10.8105C13.8691 10.248 13.9922 9.64453 13.9922 9C13.9922 8.35547 13.8691 7.75195 13.623 7.18945C13.3887 6.62695 13.0605 6.13477 12.6387 5.71289C12.2168 5.29102 11.7246 4.96289 11.1621 4.72852C10.5996 4.48242 9.99609 4.35938 9.35156 4.35938ZM9.35156 12.0234C8.53125 12.0234 7.82227 11.7275 7.22461 11.1357C6.62695 10.5439 6.32812 9.83203 6.32812 9C6.32812 8.17969 6.62402 7.4707 7.21582 6.87305C7.80762 6.27539 8.51953 5.97656 9.35156 5.97656C10.1719 5.97656 10.8809 6.27246 11.4785 6.86426C12.0762 7.45605 12.375 8.16797 12.375 9C12.375 9.82031 12.0791 10.5293 11.4873 11.127C10.8955 11.7246 10.1836 12.0234 9.35156 12.0234ZM15.2227 4.18359C15.2227 4.47656 15.123 4.73145 14.9238 4.94824C14.7246 5.16504 14.4727 5.27344 14.168 5.27344C13.875 5.27344 13.6201 5.16797 13.4033 4.95703C13.1865 4.74609 13.0781 4.48828 13.0781 4.18359C13.0781 3.89062 13.1836 3.6416 13.3945 3.43652C13.6055 3.23145 13.8633 3.12891 14.168 3.12891C14.4609 3.12891 14.71 3.22852 14.915 3.42773C15.1201 3.62695 15.2227 3.87891 15.2227 4.18359Z" fill="#6F7095" fill-opacity="0.5"/>
</svg>
