<svg width="19" height="16" viewBox="0 0 19 16" fill="none" xmlns="http://www.w3.org/2000/svg">
<path d="M16.5234 4.34375C16.5234 4.41406 16.5234 4.49023 16.5234 4.57227C16.5234 4.6543 16.5234 4.73047 16.5234 4.80078C16.5234 6.01953 16.2949 7.25586 15.8379 8.50977C15.3809 9.75195 14.707 10.877 13.8164 11.8848C12.9258 12.8926 11.8242 13.7188 10.5117 14.3633C9.21094 14.9961 7.71094 15.3125 6.01172 15.3125C5.49609 15.3125 4.98633 15.2773 4.48242 15.207C3.97852 15.1367 3.48926 15.0312 3.01465 14.8906C2.54004 14.75 2.08008 14.5742 1.63477 14.3633C1.18945 14.1641 0.761719 13.9297 0.351562 13.6602C0.492188 13.6719 0.638672 13.6807 0.791016 13.6865C0.943359 13.6924 1.08984 13.6953 1.23047 13.6953C2.08594 13.6953 2.90918 13.5605 3.7002 13.291C4.49121 13.0215 5.20312 12.6289 5.83594 12.1133C5.02734 12.1133 4.30664 11.8701 3.67383 11.3838C3.04102 10.8975 2.60156 10.2852 2.35547 9.54688C2.47266 9.58203 2.58691 9.60254 2.69824 9.6084C2.80957 9.61426 2.92969 9.61719 3.05859 9.61719C3.23438 9.61719 3.40137 9.6084 3.55957 9.59082C3.71777 9.57324 3.87891 9.54688 4.04297 9.51172C3.19922 9.33594 2.49609 8.9082 1.93359 8.22852C1.37109 7.54883 1.08984 6.76953 1.08984 5.89062C1.08984 5.87891 1.08984 5.87012 1.08984 5.86426C1.08984 5.8584 1.08984 5.84375 1.08984 5.82031C1.33594 5.96094 1.59668 6.07227 1.87207 6.1543C2.14746 6.23633 2.4375 6.27734 2.74219 6.27734C2.25 5.96094 1.85156 5.53027 1.54688 4.98535C1.24219 4.44043 1.08984 3.85156 1.08984 3.21875C1.08984 2.89062 1.13672 2.56836 1.23047 2.25195C1.32422 1.93555 1.45312 1.63672 1.61719 1.35547C2.0625 1.91797 2.56641 2.42773 3.12891 2.88477C3.69141 3.3418 4.29492 3.7373 4.93945 4.07129C5.58398 4.40527 6.26367 4.67188 6.97852 4.87109C7.70508 5.07031 8.44922 5.1875 9.21094 5.22266C9.17578 5.08203 9.14941 4.94141 9.13184 4.80078C9.11426 4.66016 9.10547 4.51953 9.10547 4.37891C9.10547 3.875 9.19922 3.39453 9.38672 2.9375C9.58594 2.49219 9.85254 2.10254 10.1865 1.76855C10.5205 1.43457 10.9102 1.17383 11.3555 0.986328C11.8008 0.787109 12.2812 0.6875 12.7969 0.6875C13.3359 0.6875 13.8369 0.792969 14.2998 1.00391C14.7627 1.21484 15.1641 1.49609 15.5039 1.84766C15.9258 1.76562 16.3359 1.65137 16.7344 1.50488C17.1328 1.3584 17.5078 1.17969 17.8594 0.96875C17.7188 1.39062 17.5078 1.77734 17.2266 2.12891C16.9453 2.48047 16.6172 2.77344 16.2422 3.00781C16.6055 2.96094 16.9629 2.89062 17.3145 2.79688C17.666 2.70312 18.0117 2.57422 18.3516 2.41016C18.1055 2.77344 17.8271 3.11914 17.5166 3.44727C17.2061 3.77539 16.875 4.07422 16.5234 4.34375Z" fill="#6F7095" fill-opacity="0.5"/>
</svg>
